<?xml version='1.0' encoding='UTF-8' standalone='no'?>
<svg height="149.945mm" xmlns:xlink="http://www.w3.org/1999/xlink" version="1.2" width="84.9207mm" viewBox="0 0 1003 1771" xmlns="http://www.w3.org/2000/svg" baseProfile="tiny">
 <title>Qt SVG Document</title>
 <desc>Generated with Qt</desc>
 <defs/>
 <g stroke-width="1" stroke-linejoin="bevel" stroke-linecap="square" fill="none" stroke="black" fill-rule="evenodd">
  <g transform="matrix(1,0,0,1,0,0)" font-style="normal" stroke-width="1" stroke-linejoin="bevel" stroke-linecap="square" font-size="32.5" font-family="MS Shell Dlg 2" font-weight="400" stroke-opacity="1" fill="none" stroke="#000000"/>
  <g transform="matrix(1,0,0,1,0,0)" font-style="normal" stroke-width="1" stroke-linejoin="bevel" stroke-linecap="square" font-size="32.5" font-family="MS Shell Dlg 2" font-weight="400" stroke-opacity="1" fill="none" stroke="#000000"/>
  <g transform="matrix(11.8,0,0,11.8,0,0)" font-style="normal" stroke-width="1" stroke-linejoin="bevel" stroke-linecap="square" font-size="32.5" font-family="MS Shell Dlg 2" font-weight="400" stroke-opacity="1" fill="none" stroke="#000000"/>
  <g transform="matrix(0.999067,0,0,0.999067,0,0)" font-style="normal" stroke-width="1" stroke-linejoin="bevel" stroke-linecap="square" font-size="32.5" font-family="MS Shell Dlg 2" font-weight="400" stroke-opacity="1" fill="none" stroke="#000000"/>
  <g transform="matrix(0.999067,0,0,0.999067,0,0)" font-style="normal" fill-opacity="1" font-size="32.5" font-family="MS Shell Dlg 2" font-weight="400" fill="#ffffff" stroke="none">
   <path vector-effect="none" d="M-2,-2 L1006,-2 L1006,1774 L-2,1774 L-2,-2" fill-rule="evenodd"/>
  </g>
  <g transform="matrix(0.999067,0,0,0.999067,0,0)" font-style="normal" stroke-width="1" stroke-linejoin="bevel" stroke-linecap="square" font-size="32.5" font-family="MS Shell Dlg 2" font-weight="400" stroke-opacity="1" fill="none" stroke="#000000"/>
  <g transform="matrix(11.8,0,0,11.8,0,0)" font-style="normal" stroke-width="1" stroke-linejoin="bevel" stroke-linecap="square" font-size="32.5" font-family="MS Shell Dlg 2" font-weight="400" stroke-opacity="1" fill="none" stroke="#000000"/>
  <g transform="matrix(11.8,0,0,11.8,0,0)" font-style="normal" stroke-width="1" stroke-linejoin="bevel" stroke-linecap="square" font-size="32.5" font-family="MS Shell Dlg 2" font-weight="400" stroke-opacity="1" fill="none" stroke="#000000"/>
  <g transform="matrix(11.8,0,0,11.8,0,0)" font-style="normal" stroke-width="1" stroke-linejoin="bevel" stroke-linecap="square" font-size="32.5" font-family="MS Shell Dlg 2" font-weight="400" stroke-opacity="1" fill="none" stroke="#000000"/>
  <g transform="matrix(11.8,0,0,11.8,0,0)" font-style="normal" stroke-width="1" stroke-linejoin="bevel" stroke-linecap="square" font-size="32.5" font-family="MS Shell Dlg 2" font-weight="400" stroke-opacity="1" fill="none" stroke="#000000"/>
  <g transform="matrix(11.8,0,0,11.8,9.44,0)" font-style="normal" stroke-width="1" stroke-linejoin="bevel" stroke-linecap="square" font-size="32.5" font-family="MS Shell Dlg 2" font-weight="400" stroke-opacity="1" fill="none" stroke="#000000"/>
  <g transform="matrix(11.8,0,0,11.8,9.44,0)" font-style="normal" stroke-width="1" stroke-linejoin="bevel" stroke-linecap="square" font-size="32.5" font-family="MS Shell Dlg 2" font-weight="400" stroke-opacity="1" fill="none" stroke="#000000"/>
  <g transform="matrix(11.8,0,0,11.8,9.44,0)" font-style="normal" fill-opacity="1" font-size="32.5" font-family="MS Shell Dlg 2" font-weight="400" fill="#ffffff" stroke="none">
   <path vector-effect="none" d="M0,0 L56.2,0 L56.2,149.6 L0,149.6 L0,0" fill-rule="evenodd"/>
  </g>
  <g transform="matrix(11.8,0,0,11.8,9.44,0)" font-style="normal" stroke-width="1" stroke-linejoin="bevel" stroke-linecap="square" font-size="32.5" font-family="MS Shell Dlg 2" font-weight="400" stroke-opacity="1" fill="none" stroke="#000000"/>
  <g transform="matrix(0.999067,0,0,0.999067,9.44,0)" font-style="normal" stroke-width="1" stroke-linejoin="bevel" stroke-linecap="square" font-size="32.5" font-family="MS Shell Dlg 2" font-weight="400" stroke-opacity="1" fill="none" stroke="#000000"/>
  <g transform="matrix(11.8,0,0,11.8,9.44,0)" font-style="normal" stroke-width="1" stroke-linejoin="bevel" stroke-linecap="square" font-size="32.5" font-family="MS Shell Dlg 2" font-weight="400" stroke-opacity="1" fill="none" stroke="#000000"/>
  <g transform="matrix(1.18,0,0,1.18,9.44,0)" font-style="normal" stroke-width="1" stroke-linejoin="bevel" stroke-linecap="square" font-size="42" font-family="MS Shell Dlg 2" font-weight="400" stroke-opacity="1" fill="none" stroke="#000000">
   <text font-style="normal" y="97" fill-opacity="1" x="20" font-size="42" xml:space="preserve" font-family="MS Shell Dlg 2" font-weight="400" fill="#000000" stroke="none">Substations, kV</text>
  </g>
  <g transform="matrix(11.8,0,0,11.8,9.44,0)" font-style="normal" stroke-width="1" stroke-linejoin="bevel" stroke-linecap="square" font-size="32.5" font-family="MS Shell Dlg 2" font-weight="400" stroke-opacity="1" fill="none" stroke="#000000"/>
  <g transform="matrix(0.999067,0,0,0.999067,56.64,149.86)" font-style="normal" stroke-width="1" fill-opacity="1" stroke-linejoin="bevel" stroke-linecap="square" font-size="32.5" font-family="MS Shell Dlg 2" font-weight="400" stroke-opacity="1" fill="#00b4c8" stroke="#232323">
   <path vector-effect="non-scaling-stroke" d="M34.7165,17 C34.7165,26.7846 26.7846,34.7165 17,34.7165 C7.21543,34.7165 -0.716535,26.7846 -0.716535,17 C-0.716535,7.21543 7.21543,-0.716535 17,-0.716535 C26.7846,-0.716535 34.7165,7.21543 34.7165,17 " fill-rule="evenodd"/>
  </g>
  <g transform="matrix(11.8,0,0,11.8,9.44,0)" font-style="normal" stroke-width="1" stroke-linejoin="bevel" stroke-linecap="square" font-size="32.5" font-family="MS Shell Dlg 2" font-weight="400" stroke-opacity="1" fill="none" stroke="#000000"/>
  <g transform="matrix(1.18,0,0,1.18,9.44,0)" font-style="normal" stroke-width="1" stroke-linejoin="bevel" stroke-linecap="square" font-size="42" font-family="MS Shell Dlg 2" font-weight="400" stroke-opacity="1" fill="none" stroke="#000000">
   <text font-style="normal" y="158.5" fill-opacity="1" x="110" font-size="42" xml:space="preserve" font-family="MS Shell Dlg 2" font-weight="400" fill="#000000" stroke="none">110</text>
  </g>
  <g transform="matrix(11.8,0,0,11.8,9.44,0)" font-style="normal" stroke-width="1" stroke-linejoin="bevel" stroke-linecap="square" font-size="32.5" font-family="MS Shell Dlg 2" font-weight="400" stroke-opacity="1" fill="none" stroke="#000000"/>
  <g transform="matrix(0.999067,0,0,0.999067,56.64,226.56)" font-style="normal" stroke-width="1" fill-opacity="1" stroke-linejoin="bevel" stroke-linecap="square" font-size="32.5" font-family="MS Shell Dlg 2" font-weight="400" stroke-opacity="1" fill="#c8c800" stroke="#232323">
   <path vector-effect="non-scaling-stroke" d="M34.7165,17 C34.7165,26.7846 26.7846,34.7165 17,34.7165 C7.21543,34.7165 -0.716535,26.7846 -0.716535,17 C-0.716535,7.21543 7.21543,-0.716535 17,-0.716535 C26.7846,-0.716535 34.7165,7.21543 34.7165,17 " fill-rule="evenodd"/>
  </g>
  <g transform="matrix(11.8,0,0,11.8,9.44,0)" font-style="normal" stroke-width="1" stroke-linejoin="bevel" stroke-linecap="square" font-size="32.5" font-family="MS Shell Dlg 2" font-weight="400" stroke-opacity="1" fill="none" stroke="#000000"/>
  <g transform="matrix(1.18,0,0,1.18,9.44,0)" font-style="normal" stroke-width="1" stroke-linejoin="bevel" stroke-linecap="square" font-size="42" font-family="MS Shell Dlg 2" font-weight="400" stroke-opacity="1" fill="none" stroke="#000000">
   <text font-style="normal" y="223.5" fill-opacity="1" x="110" font-size="42" xml:space="preserve" font-family="MS Shell Dlg 2" font-weight="400" fill="#000000" stroke="none">220</text>
  </g>
  <g transform="matrix(11.8,0,0,11.8,9.44,0)" font-style="normal" stroke-width="1" stroke-linejoin="bevel" stroke-linecap="square" font-size="32.5" font-family="MS Shell Dlg 2" font-weight="400" stroke-opacity="1" fill="none" stroke="#000000"/>
  <g transform="matrix(0.999067,0,0,0.999067,56.64,303.26)" font-style="normal" stroke-width="1" fill-opacity="1" stroke-linejoin="bevel" stroke-linecap="square" font-size="32.5" font-family="MS Shell Dlg 2" font-weight="400" stroke-opacity="1" fill="#008c00" stroke="#232323">
   <path vector-effect="non-scaling-stroke" d="M34.7165,17 C34.7165,26.7846 26.7846,34.7165 17,34.7165 C7.21543,34.7165 -0.716535,26.7846 -0.716535,17 C-0.716535,7.21543 7.21543,-0.716535 17,-0.716535 C26.7846,-0.716535 34.7165,7.21543 34.7165,17 " fill-rule="evenodd"/>
  </g>
  <g transform="matrix(11.8,0,0,11.8,9.44,0)" font-style="normal" stroke-width="1" stroke-linejoin="bevel" stroke-linecap="square" font-size="32.5" font-family="MS Shell Dlg 2" font-weight="400" stroke-opacity="1" fill="none" stroke="#000000"/>
  <g transform="matrix(1.18,0,0,1.18,9.44,0)" font-style="normal" stroke-width="1" stroke-linejoin="bevel" stroke-linecap="square" font-size="42" font-family="MS Shell Dlg 2" font-weight="400" stroke-opacity="1" fill="none" stroke="#000000">
   <text font-style="normal" y="288.5" fill-opacity="1" x="110" font-size="42" xml:space="preserve" font-family="MS Shell Dlg 2" font-weight="400" fill="#000000" stroke="none">330</text>
  </g>
  <g transform="matrix(11.8,0,0,11.8,9.44,0)" font-style="normal" stroke-width="1" stroke-linejoin="bevel" stroke-linecap="square" font-size="32.5" font-family="MS Shell Dlg 2" font-weight="400" stroke-opacity="1" fill="none" stroke="#000000"/>
  <g transform="matrix(0.999067,0,0,0.999067,56.64,379.96)" font-style="normal" stroke-width="1" fill-opacity="1" stroke-linejoin="bevel" stroke-linecap="square" font-size="32.5" font-family="MS Shell Dlg 2" font-weight="400" stroke-opacity="1" fill="#a50f0a" stroke="#232323">
   <path vector-effect="non-scaling-stroke" d="M34.7165,17 C34.7165,26.7846 26.7846,34.7165 17,34.7165 C7.21543,34.7165 -0.716535,26.7846 -0.716535,17 C-0.716535,7.21543 7.21543,-0.716535 17,-0.716535 C26.7846,-0.716535 34.7165,7.21543 34.7165,17 " fill-rule="evenodd"/>
  </g>
  <g transform="matrix(11.8,0,0,11.8,9.44,0)" font-style="normal" stroke-width="1" stroke-linejoin="bevel" stroke-linecap="square" font-size="32.5" font-family="MS Shell Dlg 2" font-weight="400" stroke-opacity="1" fill="none" stroke="#000000"/>
  <g transform="matrix(1.18,0,0,1.18,9.44,0)" font-style="normal" stroke-width="1" stroke-linejoin="bevel" stroke-linecap="square" font-size="42" font-family="MS Shell Dlg 2" font-weight="400" stroke-opacity="1" fill="none" stroke="#000000">
   <text font-style="normal" y="353.5" fill-opacity="1" x="110" font-size="42" xml:space="preserve" font-family="MS Shell Dlg 2" font-weight="400" fill="#000000" stroke="none">500</text>
  </g>
  <g transform="matrix(11.8,0,0,11.8,9.44,0)" font-style="normal" stroke-width="1" stroke-linejoin="bevel" stroke-linecap="square" font-size="32.5" font-family="MS Shell Dlg 2" font-weight="400" stroke-opacity="1" fill="none" stroke="#000000"/>
  <g transform="matrix(0.999067,0,0,0.999067,56.64,456.66)" font-style="normal" stroke-width="1" fill-opacity="1" stroke-linejoin="bevel" stroke-linecap="square" font-size="32.5" font-family="MS Shell Dlg 2" font-weight="400" stroke-opacity="1" fill="#0000c8" stroke="#232323">
   <path vector-effect="non-scaling-stroke" d="M34.7165,17 C34.7165,26.7846 26.7846,34.7165 17,34.7165 C7.21543,34.7165 -0.716535,26.7846 -0.716535,17 C-0.716535,7.21543 7.21543,-0.716535 17,-0.716535 C26.7846,-0.716535 34.7165,7.21543 34.7165,17 " fill-rule="evenodd"/>
  </g>
  <g transform="matrix(11.8,0,0,11.8,9.44,0)" font-style="normal" stroke-width="1" stroke-linejoin="bevel" stroke-linecap="square" font-size="32.5" font-family="MS Shell Dlg 2" font-weight="400" stroke-opacity="1" fill="none" stroke="#000000"/>
  <g transform="matrix(1.18,0,0,1.18,9.44,0)" font-style="normal" stroke-width="1" stroke-linejoin="bevel" stroke-linecap="square" font-size="42" font-family="MS Shell Dlg 2" font-weight="400" stroke-opacity="1" fill="none" stroke="#000000">
   <text font-style="normal" y="418.5" fill-opacity="1" x="110" font-size="42" xml:space="preserve" font-family="MS Shell Dlg 2" font-weight="400" fill="#000000" stroke="none">750</text>
  </g>
  <g transform="matrix(11.8,0,0,11.8,9.44,0)" font-style="normal" stroke-width="1" stroke-linejoin="bevel" stroke-linecap="square" font-size="32.5" font-family="MS Shell Dlg 2" font-weight="400" stroke-opacity="1" fill="none" stroke="#000000"/>
  <g transform="matrix(0.999067,0,0,0.999067,62.54,539.26)" font-style="normal" stroke-width="4.72441" fill-opacity="1" stroke-linejoin="bevel" stroke-linecap="square" font-size="32.5" font-family="MS Shell Dlg 2" font-weight="400" stroke-opacity="1" fill="#ffffff" stroke="#000000">
   <path vector-effect="none" d="M0.188976,0.188976 L23.811,0.188976 L23.811,23.811 L0.188976,23.811 L0.188976,0.188976" fill-rule="evenodd"/>
  </g>
  <g transform="matrix(11.8,0,0,11.8,9.44,0)" font-style="normal" stroke-width="1" stroke-linejoin="bevel" stroke-linecap="square" font-size="32.5" font-family="MS Shell Dlg 2" font-weight="400" stroke-opacity="1" fill="none" stroke="#000000"/>
  <g transform="matrix(1.18,0,0,1.18,9.44,0)" font-style="normal" stroke-width="1" stroke-linejoin="bevel" stroke-linecap="square" font-size="42" font-family="MS Shell Dlg 2" font-weight="400" stroke-opacity="1" fill="none" stroke="#000000">
   <text font-style="normal" y="483.5" fill-opacity="1" x="110" font-size="42" xml:space="preserve" font-family="MS Shell Dlg 2" font-weight="400" fill="#000000" stroke="none">Power plants</text>
  </g>
  <g transform="matrix(11.8,0,0,11.8,9.44,0)" font-style="normal" stroke-width="1" stroke-linejoin="bevel" stroke-linecap="square" font-size="32.5" font-family="MS Shell Dlg 2" font-weight="400" stroke-opacity="1" fill="none" stroke="#000000"/>
  <g transform="matrix(1.18,0,0,1.18,9.44,0)" font-style="normal" stroke-width="1" stroke-linejoin="bevel" stroke-linecap="square" font-size="42" font-family="MS Shell Dlg 2" font-weight="400" stroke-opacity="1" fill="none" stroke="#000000">
   <text font-style="normal" y="559" fill-opacity="1" x="20" font-size="42" xml:space="preserve" font-family="MS Shell Dlg 2" font-weight="400" fill="#000000" stroke="none">Power lines, kV</text>
  </g>
  <g transform="matrix(11.8,0,0,11.8,9.44,0)" font-style="normal" stroke-width="1" stroke-linejoin="bevel" stroke-linecap="square" font-size="32.5" font-family="MS Shell Dlg 2" font-weight="400" stroke-opacity="1" fill="none" stroke="#000000"/>
  <g transform="matrix(0.999067,0,0,0.999067,33.04,689.12)" font-style="normal" stroke-width="5.90551" stroke-linejoin="bevel" stroke-linecap="square" font-size="32.5" font-family="MS Shell Dlg 2" font-weight="400" stroke-opacity="1" fill="none" stroke="#c8c800">
   <path vector-effect="none" d="M0,23.5 L83,23.5" fill-rule="evenodd"/>
  </g>
  <g transform="matrix(11.8,0,0,11.8,9.44,0)" font-style="normal" stroke-width="1" stroke-linejoin="bevel" stroke-linecap="square" font-size="32.5" font-family="MS Shell Dlg 2" font-weight="400" stroke-opacity="1" fill="none" stroke="#000000"/>
  <g transform="matrix(1.18,0,0,1.18,9.44,0)" font-style="normal" stroke-width="1" stroke-linejoin="bevel" stroke-linecap="square" font-size="42" font-family="MS Shell Dlg 2" font-weight="400" stroke-opacity="1" fill="none" stroke="#000000">
   <text font-style="normal" y="620.5" fill-opacity="1" x="110" font-size="42" xml:space="preserve" font-family="MS Shell Dlg 2" font-weight="400" fill="#000000" stroke="none">220</text>
  </g>
  <g transform="matrix(11.8,0,0,11.8,9.44,0)" font-style="normal" stroke-width="1" stroke-linejoin="bevel" stroke-linecap="square" font-size="32.5" font-family="MS Shell Dlg 2" font-weight="400" stroke-opacity="1" fill="none" stroke="#000000"/>
  <g transform="matrix(0.999067,0,0,0.999067,33.04,765.82)" font-style="normal" stroke-width="5.90551" stroke-linejoin="bevel" stroke-linecap="square" font-size="32.5" font-family="MS Shell Dlg 2" font-weight="400" stroke-opacity="1" fill="none" stroke="#008c00">
   <path vector-effect="none" d="M0,23.5 L83,23.5" fill-rule="evenodd"/>
  </g>
  <g transform="matrix(11.8,0,0,11.8,9.44,0)" font-style="normal" stroke-width="1" stroke-linejoin="bevel" stroke-linecap="square" font-size="32.5" font-family="MS Shell Dlg 2" font-weight="400" stroke-opacity="1" fill="none" stroke="#000000"/>
  <g transform="matrix(1.18,0,0,1.18,9.44,0)" font-style="normal" stroke-width="1" stroke-linejoin="bevel" stroke-linecap="square" font-size="42" font-family="MS Shell Dlg 2" font-weight="400" stroke-opacity="1" fill="none" stroke="#000000">
   <text font-style="normal" y="685.5" fill-opacity="1" x="110" font-size="42" xml:space="preserve" font-family="MS Shell Dlg 2" font-weight="400" fill="#000000" stroke="none">330</text>
  </g>
  <g transform="matrix(11.8,0,0,11.8,9.44,0)" font-style="normal" stroke-width="1" stroke-linejoin="bevel" stroke-linecap="square" font-size="32.5" font-family="MS Shell Dlg 2" font-weight="400" stroke-opacity="1" fill="none" stroke="#000000"/>
  <g transform="matrix(0.999067,0,0,0.999067,33.04,842.52)" font-style="normal" stroke-width="5.90551" stroke-linejoin="bevel" stroke-linecap="square" font-size="32.5" font-family="MS Shell Dlg 2" font-weight="400" stroke-opacity="1" fill="none" stroke="#a50f0a">
   <path vector-effect="none" d="M0,23.5 L83,23.5" fill-rule="evenodd"/>
  </g>
  <g transform="matrix(11.8,0,0,11.8,9.44,0)" font-style="normal" stroke-width="1" stroke-linejoin="bevel" stroke-linecap="square" font-size="32.5" font-family="MS Shell Dlg 2" font-weight="400" stroke-opacity="1" fill="none" stroke="#000000"/>
  <g transform="matrix(1.18,0,0,1.18,9.44,0)" font-style="normal" stroke-width="1" stroke-linejoin="bevel" stroke-linecap="square" font-size="42" font-family="MS Shell Dlg 2" font-weight="400" stroke-opacity="1" fill="none" stroke="#000000">
   <text font-style="normal" y="750.5" fill-opacity="1" x="110" font-size="42" xml:space="preserve" font-family="MS Shell Dlg 2" font-weight="400" fill="#000000" stroke="none">500</text>
  </g>
  <g transform="matrix(11.8,0,0,11.8,9.44,0)" font-style="normal" stroke-width="1" stroke-linejoin="bevel" stroke-linecap="square" font-size="32.5" font-family="MS Shell Dlg 2" font-weight="400" stroke-opacity="1" fill="none" stroke="#000000"/>
  <g transform="matrix(0.999067,0,0,0.999067,33.04,919.22)" font-style="normal" stroke-width="5.90551" stroke-linejoin="bevel" stroke-linecap="square" font-size="32.5" font-family="MS Shell Dlg 2" font-weight="400" stroke-opacity="1" fill="none" stroke="#0000c8">
   <path vector-effect="none" d="M0,23.5 L83,23.5" fill-rule="evenodd"/>
  </g>
  <g transform="matrix(11.8,0,0,11.8,9.44,0)" font-style="normal" stroke-width="1" stroke-linejoin="bevel" stroke-linecap="square" font-size="32.5" font-family="MS Shell Dlg 2" font-weight="400" stroke-opacity="1" fill="none" stroke="#000000"/>
  <g transform="matrix(1.18,0,0,1.18,9.44,0)" font-style="normal" stroke-width="1" stroke-linejoin="bevel" stroke-linecap="square" font-size="42" font-family="MS Shell Dlg 2" font-weight="400" stroke-opacity="1" fill="none" stroke="#000000">
   <text font-style="normal" y="815.5" fill-opacity="1" x="110" font-size="42" xml:space="preserve" font-family="MS Shell Dlg 2" font-weight="400" fill="#000000" stroke="none">750</text>
  </g>
  <g transform="matrix(11.8,0,0,11.8,9.44,0)" font-style="normal" stroke-width="1" stroke-linejoin="bevel" stroke-linecap="square" font-size="32.5" font-family="MS Shell Dlg 2" font-weight="400" stroke-opacity="1" fill="none" stroke="#000000"/>
  <g transform="matrix(1.18,0,0,1.18,9.44,0)" font-style="normal" stroke-width="1" stroke-linejoin="bevel" stroke-linecap="square" font-size="42" font-family="MS Shell Dlg 2" font-weight="400" stroke-opacity="1" fill="none" stroke="#000000">
   <text font-style="normal" y="891" fill-opacity="1" x="20" font-size="42" xml:space="preserve" font-family="MS Shell Dlg 2" font-weight="400" fill="#000000" stroke="none">Power line modifications</text>
  </g>
  <g transform="matrix(11.8,0,0,11.8,9.44,0)" font-style="normal" stroke-width="1" stroke-linejoin="bevel" stroke-linecap="square" font-size="32.5" font-family="MS Shell Dlg 2" font-weight="400" stroke-opacity="1" fill="none" stroke="#000000"/>
  <g transform="matrix(0.999067,0,0,0.999067,33.04,1080.88)" font-style="normal" stroke-width="11.811" stroke-linejoin="bevel" stroke-linecap="square" font-size="32.5" font-family="MS Shell Dlg 2" font-weight="400" stroke-opacity="1" fill="none" stroke="#24e5d8">
   <path vector-effect="none" d="M0,23.5 L83,23.5" fill-rule="evenodd"/>
  </g>
  <g transform="matrix(11.8,0,0,11.8,9.44,0)" font-style="normal" stroke-width="1" stroke-linejoin="bevel" stroke-linecap="square" font-size="32.5" font-family="MS Shell Dlg 2" font-weight="400" stroke-opacity="1" fill="none" stroke="#000000"/>
  <g transform="matrix(1.18,0,0,1.18,9.44,0)" font-style="normal" stroke-width="1" stroke-linejoin="bevel" stroke-linecap="square" font-size="42" font-family="MS Shell Dlg 2" font-weight="400" stroke-opacity="1" fill="none" stroke="#000000">
   <text font-style="normal" y="952.5" fill-opacity="1" x="110" font-size="42" xml:space="preserve" font-family="MS Shell Dlg 2" font-weight="400" fill="#000000" stroke="none">Branch construction</text>
  </g>
  <g transform="matrix(11.8,0,0,11.8,9.44,0)" font-style="normal" stroke-width="1" stroke-linejoin="bevel" stroke-linecap="square" font-size="32.5" font-family="MS Shell Dlg 2" font-weight="400" stroke-opacity="1" fill="none" stroke="#000000"/>
  <g transform="matrix(0.999067,0,0,0.999067,33.04,1157.58)" font-style="normal" stroke-width="11.811" stroke-linejoin="bevel" stroke-linecap="square" font-size="32.5" font-family="MS Shell Dlg 2" font-weight="400" stroke-opacity="1" fill="none" stroke="#e27d64">
   <path vector-effect="none" d="M0,23.5 L83,23.5" fill-rule="evenodd"/>
  </g>
  <g transform="matrix(11.8,0,0,11.8,9.44,0)" font-style="normal" stroke-width="1" stroke-linejoin="bevel" stroke-linecap="square" font-size="32.5" font-family="MS Shell Dlg 2" font-weight="400" stroke-opacity="1" fill="none" stroke="#000000"/>
  <g transform="matrix(1.18,0,0,1.18,9.44,0)" font-style="normal" stroke-width="1" stroke-linejoin="bevel" stroke-linecap="square" font-size="42" font-family="MS Shell Dlg 2" font-weight="400" stroke-opacity="1" fill="none" stroke="#000000">
   <text font-style="normal" y="1017.5" fill-opacity="1" x="110" font-size="42" xml:space="preserve" font-family="MS Shell Dlg 2" font-weight="400" fill="#000000" stroke="none">Branch dismantling</text>
  </g>
  <g transform="matrix(11.8,0,0,11.8,9.44,0)" font-style="normal" stroke-width="1" stroke-linejoin="bevel" stroke-linecap="square" font-size="32.5" font-family="MS Shell Dlg 2" font-weight="400" stroke-opacity="1" fill="none" stroke="#000000"/>
  <g transform="matrix(0.999067,0,0,0.999067,33.04,1234.28)" font-style="normal" stroke-width="11.811" stroke-linejoin="bevel" stroke-linecap="square" font-size="32.5" font-family="MS Shell Dlg 2" font-weight="400" stroke-opacity="1" fill="none" stroke="#10e829">
   <path vector-effect="none" d="M0,23.5 L83,23.5" fill-rule="evenodd"/>
  </g>
  <g transform="matrix(11.8,0,0,11.8,9.44,0)" font-style="normal" stroke-width="1" stroke-linejoin="bevel" stroke-linecap="square" font-size="32.5" font-family="MS Shell Dlg 2" font-weight="400" stroke-opacity="1" fill="none" stroke="#000000"/>
  <g transform="matrix(1.18,0,0,1.18,9.44,0)" font-style="normal" stroke-width="1" stroke-linejoin="bevel" stroke-linecap="square" font-size="42" font-family="MS Shell Dlg 2" font-weight="400" stroke-opacity="1" fill="none" stroke="#000000">
   <text font-style="normal" y="1082.5" fill-opacity="1" x="110" font-size="42" xml:space="preserve" font-family="MS Shell Dlg 2" font-weight="400" fill="#000000" stroke="none">Cut construction</text>
  </g>
  <g transform="matrix(11.8,0,0,11.8,9.44,0)" font-style="normal" stroke-width="1" stroke-linejoin="bevel" stroke-linecap="square" font-size="32.5" font-family="MS Shell Dlg 2" font-weight="400" stroke-opacity="1" fill="none" stroke="#000000"/>
  <g transform="matrix(0.999067,0,0,0.999067,33.04,1310.98)" font-style="normal" stroke-width="11.811" stroke-linejoin="bevel" stroke-linecap="square" font-size="32.5" font-family="MS Shell Dlg 2" font-weight="400" stroke-opacity="1" fill="none" stroke="#e327da">
   <path vector-effect="none" d="M0,23.5 L83,23.5" fill-rule="evenodd"/>
  </g>
  <g transform="matrix(11.8,0,0,11.8,9.44,0)" font-style="normal" stroke-width="1" stroke-linejoin="bevel" stroke-linecap="square" font-size="32.5" font-family="MS Shell Dlg 2" font-weight="400" stroke-opacity="1" fill="none" stroke="#000000"/>
  <g transform="matrix(1.18,0,0,1.18,9.44,0)" font-style="normal" stroke-width="1" stroke-linejoin="bevel" stroke-linecap="square" font-size="42" font-family="MS Shell Dlg 2" font-weight="400" stroke-opacity="1" fill="none" stroke="#000000">
   <text font-style="normal" y="1147.5" fill-opacity="1" x="110" font-size="42" xml:space="preserve" font-family="MS Shell Dlg 2" font-weight="400" fill="#000000" stroke="none">Cut dismantling</text>
  </g>
  <g transform="matrix(11.8,0,0,11.8,9.44,0)" font-style="normal" stroke-width="1" stroke-linejoin="bevel" stroke-linecap="square" font-size="32.5" font-family="MS Shell Dlg 2" font-weight="400" stroke-opacity="1" fill="none" stroke="#000000"/>
  <g transform="matrix(0.999067,0,0,0.999067,33.04,1387.68)" font-style="normal" stroke-width="11.811" stroke-linejoin="bevel" stroke-linecap="square" font-size="32.5" font-family="MS Shell Dlg 2" font-weight="400" stroke-opacity="1" fill="none" stroke="#e31a1c">
   <path vector-effect="none" d="M0,23.5 L83,23.5" fill-rule="evenodd"/>
  </g>
  <g transform="matrix(11.8,0,0,11.8,9.44,0)" font-style="normal" stroke-width="1" stroke-linejoin="bevel" stroke-linecap="square" font-size="32.5" font-family="MS Shell Dlg 2" font-weight="400" stroke-opacity="1" fill="none" stroke="#000000"/>
  <g transform="matrix(1.18,0,0,1.18,9.44,0)" font-style="normal" stroke-width="1" stroke-linejoin="bevel" stroke-linecap="square" font-size="42" font-family="MS Shell Dlg 2" font-weight="400" stroke-opacity="1" fill="none" stroke="#000000">
   <text font-style="normal" y="1212.5" fill-opacity="1" x="110" font-size="42" xml:space="preserve" font-family="MS Shell Dlg 2" font-weight="400" fill="#000000" stroke="none">Line dismantling</text>
  </g>
  <g transform="matrix(11.8,0,0,11.8,9.44,0)" font-style="normal" stroke-width="1" stroke-linejoin="bevel" stroke-linecap="square" font-size="32.5" font-family="MS Shell Dlg 2" font-weight="400" stroke-opacity="1" fill="none" stroke="#000000"/>
  <g transform="matrix(0.999067,0,0,0.999067,33.04,1464.38)" font-style="normal" stroke-width="11.811" stroke-linejoin="bevel" stroke-linecap="square" font-size="32.5" font-family="MS Shell Dlg 2" font-weight="400" stroke-opacity="1" fill="none" stroke="#1d8c3b">
   <path vector-effect="none" d="M0,23.5 L83,23.5" fill-rule="evenodd"/>
  </g>
  <g transform="matrix(11.8,0,0,11.8,9.44,0)" font-style="normal" stroke-width="1" stroke-linejoin="bevel" stroke-linecap="square" font-size="32.5" font-family="MS Shell Dlg 2" font-weight="400" stroke-opacity="1" fill="none" stroke="#000000"/>
  <g transform="matrix(1.18,0,0,1.18,9.44,0)" font-style="normal" stroke-width="1" stroke-linejoin="bevel" stroke-linecap="square" font-size="42" font-family="MS Shell Dlg 2" font-weight="400" stroke-opacity="1" fill="none" stroke="#000000">
   <text font-style="normal" y="1277.5" fill-opacity="1" x="110" font-size="42" xml:space="preserve" font-family="MS Shell Dlg 2" font-weight="400" fill="#000000" stroke="none">New line construction</text>
  </g>
  <g transform="matrix(11.8,0,0,11.8,9.44,0)" font-style="normal" stroke-width="1" stroke-linejoin="bevel" stroke-linecap="square" font-size="32.5" font-family="MS Shell Dlg 2" font-weight="400" stroke-opacity="1" fill="none" stroke="#000000"/>
  <g transform="matrix(0.999067,0,0,0.999067,33.04,1541.08)" font-style="normal" stroke-width="11.811" stroke-linejoin="bevel" stroke-linecap="square" font-size="32.5" font-family="MS Shell Dlg 2" font-weight="400" stroke-opacity="1" fill="none" stroke="#52ced2">
   <path vector-effect="none" d="M0,23.5 L83,23.5" fill-rule="evenodd"/>
  </g>
  <g transform="matrix(11.8,0,0,11.8,9.44,0)" font-style="normal" stroke-width="1" stroke-linejoin="bevel" stroke-linecap="square" font-size="32.5" font-family="MS Shell Dlg 2" font-weight="400" stroke-opacity="1" fill="none" stroke="#000000"/>
  <g transform="matrix(1.18,0,0,1.18,9.44,0)" font-style="normal" stroke-width="1" stroke-linejoin="bevel" stroke-linecap="square" font-size="42" font-family="MS Shell Dlg 2" font-weight="400" stroke-opacity="1" fill="none" stroke="#000000">
   <text font-style="normal" y="1342.5" fill-opacity="1" x="110" font-size="42" xml:space="preserve" font-family="MS Shell Dlg 2" font-weight="400" fill="#000000" stroke="none">Re-routing construction</text>
  </g>
  <g transform="matrix(11.8,0,0,11.8,9.44,0)" font-style="normal" stroke-width="1" stroke-linejoin="bevel" stroke-linecap="square" font-size="32.5" font-family="MS Shell Dlg 2" font-weight="400" stroke-opacity="1" fill="none" stroke="#000000"/>
  <g transform="matrix(0.999067,0,0,0.999067,33.04,1617.78)" font-style="normal" stroke-width="11.811" stroke-linejoin="bevel" stroke-linecap="square" font-size="32.5" font-family="MS Shell Dlg 2" font-weight="400" stroke-opacity="1" fill="none" stroke="#f0d730">
   <path vector-effect="none" d="M0,23.5 L83,23.5" fill-rule="evenodd"/>
  </g>
  <g transform="matrix(11.8,0,0,11.8,9.44,0)" font-style="normal" stroke-width="1" stroke-linejoin="bevel" stroke-linecap="square" font-size="32.5" font-family="MS Shell Dlg 2" font-weight="400" stroke-opacity="1" fill="none" stroke="#000000"/>
  <g transform="matrix(1.18,0,0,1.18,9.44,0)" font-style="normal" stroke-width="1" stroke-linejoin="bevel" stroke-linecap="square" font-size="42" font-family="MS Shell Dlg 2" font-weight="400" stroke-opacity="1" fill="none" stroke="#000000">
   <text font-style="normal" y="1407.5" fill-opacity="1" x="110" font-size="42" xml:space="preserve" font-family="MS Shell Dlg 2" font-weight="400" fill="#000000" stroke="none">Re-routing dismantling</text>
  </g>
  <g transform="matrix(11.8,0,0,11.8,9.44,0)" font-style="normal" stroke-width="1" stroke-linejoin="bevel" stroke-linecap="square" font-size="32.5" font-family="MS Shell Dlg 2" font-weight="400" stroke-opacity="1" fill="none" stroke="#000000"/>
  <g transform="matrix(0.999067,0,0,0.999067,33.04,1694.48)" font-style="normal" stroke-width="3.07087" stroke-linejoin="bevel" stroke-linecap="square" font-size="32.5" font-family="MS Shell Dlg 2" font-weight="400" stroke-opacity="1" fill="none" stroke="#a8a8a8">
   <path vector-effect="none" d="M0,23.5 L83,23.5" fill-rule="evenodd"/>
  </g>
  <g transform="matrix(11.8,0,0,11.8,9.44,0)" font-style="normal" stroke-width="1" stroke-linejoin="bevel" stroke-linecap="square" font-size="32.5" font-family="MS Shell Dlg 2" font-weight="400" stroke-opacity="1" fill="none" stroke="#000000"/>
  <g transform="matrix(1.18,0,0,1.18,9.44,0)" font-style="normal" stroke-width="1" stroke-linejoin="bevel" stroke-linecap="square" font-size="42" font-family="MS Shell Dlg 2" font-weight="400" stroke-opacity="1" fill="none" stroke="#000000">
   <text font-style="normal" y="1472.5" fill-opacity="1" x="110" font-size="42" xml:space="preserve" font-family="MS Shell Dlg 2" font-weight="400" fill="#000000" stroke="none">Unchanged segments</text>
  </g>
  <g transform="matrix(11.8,0,0,11.8,9.44,0)" font-style="normal" stroke-width="1" stroke-linejoin="bevel" stroke-linecap="square" font-size="32.5" font-family="MS Shell Dlg 2" font-weight="400" stroke-opacity="1" fill="none" stroke="#000000"/>
  <g transform="matrix(0.999067,0,0,0.999067,9.44,0)" font-style="normal" stroke-width="1" stroke-linejoin="bevel" stroke-linecap="square" font-size="32.5" font-family="MS Shell Dlg 2" font-weight="400" stroke-opacity="1" fill="none" stroke="#000000"/>
  <g transform="matrix(11.8,0,0,11.8,9.44,0)" font-style="normal" stroke-width="1" stroke-linejoin="bevel" stroke-linecap="square" font-size="32.5" font-family="MS Shell Dlg 2" font-weight="400" stroke-opacity="1" fill="none" stroke="#000000"/>
  <g transform="matrix(11.8,0,0,11.8,9.44,0)" font-style="normal" stroke-width="1" stroke-linejoin="bevel" stroke-linecap="square" font-size="32.5" font-family="MS Shell Dlg 2" font-weight="400" stroke-opacity="1" fill="none" stroke="#000000"/>
  <g transform="matrix(11.8,0,0,11.8,487.34,0)" font-style="normal" stroke-width="1" stroke-linejoin="bevel" stroke-linecap="square" font-size="32.5" font-family="MS Shell Dlg 2" font-weight="400" stroke-opacity="1" fill="none" stroke="#000000"/>
  <g transform="matrix(11.8,0,0,11.8,487.34,0)" font-style="normal" stroke-width="1" stroke-linejoin="bevel" stroke-linecap="square" font-size="32.5" font-family="MS Shell Dlg 2" font-weight="400" stroke-opacity="1" fill="none" stroke="#000000"/>
  <g transform="matrix(11.8,0,0,11.8,487.34,0)" font-style="normal" fill-opacity="1" font-size="32.5" font-family="MS Shell Dlg 2" font-weight="400" fill="#ffffff" stroke="none">
   <path vector-effect="none" d="M0,0 L43.7,0 L43.7,44.2 L0,44.2 L0,0" fill-rule="evenodd"/>
  </g>
  <g transform="matrix(11.8,0,0,11.8,487.34,0)" font-style="normal" stroke-width="1" stroke-linejoin="bevel" stroke-linecap="square" font-size="32.5" font-family="MS Shell Dlg 2" font-weight="400" stroke-opacity="1" fill="none" stroke="#000000"/>
  <g transform="matrix(0.999067,0,0,0.999067,487.34,0)" font-style="normal" stroke-width="1" stroke-linejoin="bevel" stroke-linecap="square" font-size="32.5" font-family="MS Shell Dlg 2" font-weight="400" stroke-opacity="1" fill="none" stroke="#000000"/>
  <g transform="matrix(11.8,0,0,11.8,487.34,0)" font-style="normal" stroke-width="1" stroke-linejoin="bevel" stroke-linecap="square" font-size="32.5" font-family="MS Shell Dlg 2" font-weight="400" stroke-opacity="1" fill="none" stroke="#000000"/>
  <g transform="matrix(1.18,0,0,1.18,487.34,0)" font-style="normal" stroke-width="1" stroke-linejoin="bevel" stroke-linecap="square" font-size="42" font-family="MS Shell Dlg 2" font-weight="400" stroke-opacity="1" fill="none" stroke="#000000">
   <text font-style="normal" y="97" fill-opacity="1" x="20" font-size="42" xml:space="preserve" font-family="MS Shell Dlg 2" font-weight="400" fill="#000000" stroke="none">Power line age, years</text>
  </g>
  <g transform="matrix(11.8,0,0,11.8,487.34,0)" font-style="normal" stroke-width="1" stroke-linejoin="bevel" stroke-linecap="square" font-size="32.5" font-family="MS Shell Dlg 2" font-weight="400" stroke-opacity="1" fill="none" stroke="#000000"/>
  <g transform="matrix(0.999067,0,0,0.999067,510.94,143.96)" font-style="normal" stroke-width="11.811" stroke-linejoin="bevel" stroke-linecap="square" font-size="32.5" font-family="MS Shell Dlg 2" font-weight="400" stroke-opacity="1" fill="none" stroke="#fde725">
   <path vector-effect="none" d="M0,23.5 L83,23.5" fill-rule="evenodd"/>
  </g>
  <g transform="matrix(11.8,0,0,11.8,487.34,0)" font-style="normal" stroke-width="1" stroke-linejoin="bevel" stroke-linecap="square" font-size="32.5" font-family="MS Shell Dlg 2" font-weight="400" stroke-opacity="1" fill="none" stroke="#000000"/>
  <g transform="matrix(1.18,0,0,1.18,487.34,0)" font-style="normal" stroke-width="1" stroke-linejoin="bevel" stroke-linecap="square" font-size="42" font-family="MS Shell Dlg 2" font-weight="400" stroke-opacity="1" fill="none" stroke="#000000">
   <text font-style="normal" y="158.5" fill-opacity="1" x="110" font-size="42" xml:space="preserve" font-family="MS Shell Dlg 2" font-weight="400" fill="#000000" stroke="none">less than 2</text>
  </g>
  <g transform="matrix(11.8,0,0,11.8,487.34,0)" font-style="normal" stroke-width="1" stroke-linejoin="bevel" stroke-linecap="square" font-size="32.5" font-family="MS Shell Dlg 2" font-weight="400" stroke-opacity="1" fill="none" stroke="#000000"/>
  <g transform="matrix(0.999067,0,0,0.999067,510.94,220.66)" font-style="normal" stroke-width="11.811" stroke-linejoin="bevel" stroke-linecap="square" font-size="32.5" font-family="MS Shell Dlg 2" font-weight="400" stroke-opacity="1" fill="none" stroke="#5dc963">
   <path vector-effect="none" d="M0,23.5 L83,23.5" fill-rule="evenodd"/>
  </g>
  <g transform="matrix(11.8,0,0,11.8,487.34,0)" font-style="normal" stroke-width="1" stroke-linejoin="bevel" stroke-linecap="square" font-size="32.5" font-family="MS Shell Dlg 2" font-weight="400" stroke-opacity="1" fill="none" stroke="#000000"/>
  <g transform="matrix(1.18,0,0,1.18,487.34,0)" font-style="normal" stroke-width="1" stroke-linejoin="bevel" stroke-linecap="square" font-size="42" font-family="MS Shell Dlg 2" font-weight="400" stroke-opacity="1" fill="none" stroke="#000000">
   <text font-style="normal" y="223.5" fill-opacity="1" x="110" font-size="42" xml:space="preserve" font-family="MS Shell Dlg 2" font-weight="400" fill="#000000" stroke="none">2 - 6</text>
  </g>
  <g transform="matrix(11.8,0,0,11.8,487.34,0)" font-style="normal" stroke-width="1" stroke-linejoin="bevel" stroke-linecap="square" font-size="32.5" font-family="MS Shell Dlg 2" font-weight="400" stroke-opacity="1" fill="none" stroke="#000000"/>
  <g transform="matrix(0.999067,0,0,0.999067,510.94,297.36)" font-style="normal" stroke-width="11.811" stroke-linejoin="bevel" stroke-linecap="square" font-size="32.5" font-family="MS Shell Dlg 2" font-weight="400" stroke-opacity="1" fill="none" stroke="#21908d">
   <path vector-effect="none" d="M0,23.5 L83,23.5" fill-rule="evenodd"/>
  </g>
  <g transform="matrix(11.8,0,0,11.8,487.34,0)" font-style="normal" stroke-width="1" stroke-linejoin="bevel" stroke-linecap="square" font-size="32.5" font-family="MS Shell Dlg 2" font-weight="400" stroke-opacity="1" fill="none" stroke="#000000"/>
  <g transform="matrix(1.18,0,0,1.18,487.34,0)" font-style="normal" stroke-width="1" stroke-linejoin="bevel" stroke-linecap="square" font-size="42" font-family="MS Shell Dlg 2" font-weight="400" stroke-opacity="1" fill="none" stroke="#000000">
   <text font-style="normal" y="288.5" fill-opacity="1" x="110" font-size="42" xml:space="preserve" font-family="MS Shell Dlg 2" font-weight="400" fill="#000000" stroke="none">6 - 11</text>
  </g>
  <g transform="matrix(11.8,0,0,11.8,487.34,0)" font-style="normal" stroke-width="1" stroke-linejoin="bevel" stroke-linecap="square" font-size="32.5" font-family="MS Shell Dlg 2" font-weight="400" stroke-opacity="1" fill="none" stroke="#000000"/>
  <g transform="matrix(0.999067,0,0,0.999067,510.94,374.06)" font-style="normal" stroke-width="11.811" stroke-linejoin="bevel" stroke-linecap="square" font-size="32.5" font-family="MS Shell Dlg 2" font-weight="400" stroke-opacity="1" fill="none" stroke="#3b528b">
   <path vector-effect="none" d="M0,23.5 L83,23.5" fill-rule="evenodd"/>
  </g>
  <g transform="matrix(11.8,0,0,11.8,487.34,0)" font-style="normal" stroke-width="1" stroke-linejoin="bevel" stroke-linecap="square" font-size="32.5" font-family="MS Shell Dlg 2" font-weight="400" stroke-opacity="1" fill="none" stroke="#000000"/>
  <g transform="matrix(1.18,0,0,1.18,487.34,0)" font-style="normal" stroke-width="1" stroke-linejoin="bevel" stroke-linecap="square" font-size="42" font-family="MS Shell Dlg 2" font-weight="400" stroke-opacity="1" fill="none" stroke="#000000">
   <text font-style="normal" y="353.5" fill-opacity="1" x="110" font-size="42" xml:space="preserve" font-family="MS Shell Dlg 2" font-weight="400" fill="#000000" stroke="none">11 - 20</text>
  </g>
  <g transform="matrix(11.8,0,0,11.8,487.34,0)" font-style="normal" stroke-width="1" stroke-linejoin="bevel" stroke-linecap="square" font-size="32.5" font-family="MS Shell Dlg 2" font-weight="400" stroke-opacity="1" fill="none" stroke="#000000"/>
  <g transform="matrix(0.999067,0,0,0.999067,510.94,450.76)" font-style="normal" stroke-width="11.811" stroke-linejoin="bevel" stroke-linecap="square" font-size="32.5" font-family="MS Shell Dlg 2" font-weight="400" stroke-opacity="1" fill="none" stroke="#440154">
   <path vector-effect="none" d="M0,23.5 L83,23.5" fill-rule="evenodd"/>
  </g>
  <g transform="matrix(11.8,0,0,11.8,487.34,0)" font-style="normal" stroke-width="1" stroke-linejoin="bevel" stroke-linecap="square" font-size="32.5" font-family="MS Shell Dlg 2" font-weight="400" stroke-opacity="1" fill="none" stroke="#000000"/>
  <g transform="matrix(1.18,0,0,1.18,487.34,0)" font-style="normal" stroke-width="1" stroke-linejoin="bevel" stroke-linecap="square" font-size="42" font-family="MS Shell Dlg 2" font-weight="400" stroke-opacity="1" fill="none" stroke="#000000">
   <text font-style="normal" y="418.5" fill-opacity="1" x="110" font-size="42" xml:space="preserve" font-family="MS Shell Dlg 2" font-weight="400" fill="#000000" stroke="none">more than 20</text>
  </g>
  <g transform="matrix(11.8,0,0,11.8,487.34,0)" font-style="normal" stroke-width="1" stroke-linejoin="bevel" stroke-linecap="square" font-size="32.5" font-family="MS Shell Dlg 2" font-weight="400" stroke-opacity="1" fill="none" stroke="#000000"/>
  <g transform="matrix(0.999067,0,0,0.999067,487.34,0)" font-style="normal" stroke-width="1" stroke-linejoin="bevel" stroke-linecap="square" font-size="32.5" font-family="MS Shell Dlg 2" font-weight="400" stroke-opacity="1" fill="none" stroke="#000000"/>
  <g transform="matrix(11.8,0,0,11.8,487.34,0)" font-style="normal" stroke-width="1" stroke-linejoin="bevel" stroke-linecap="square" font-size="32.5" font-family="MS Shell Dlg 2" font-weight="400" stroke-opacity="1" fill="none" stroke="#000000"/>
  <g transform="matrix(11.8,0,0,11.8,487.34,0)" font-style="normal" stroke-width="1" stroke-linejoin="bevel" stroke-linecap="square" font-size="32.5" font-family="MS Shell Dlg 2" font-weight="400" stroke-opacity="1" fill="none" stroke="#000000"/>
  <g transform="matrix(1,0,0,1,0,0)" font-style="normal" stroke-width="1" stroke-linejoin="bevel" stroke-linecap="square" font-size="32.5" font-family="MS Shell Dlg 2" font-weight="400" stroke-opacity="1" fill="none" stroke="#000000"/>
 </g>
</svg>
