<?xml version='1.0' encoding='UTF-8' standalone='no'?>
<svg viewBox="0 0 1003 1771" width="84.9207mm" version="1.2" height="149.945mm" xmlns:xlink="http://www.w3.org/1999/xlink" xmlns="http://www.w3.org/2000/svg" baseProfile="tiny">
 <title>Qt SVG Document</title>
 <desc>Generated with Qt</desc>
 <defs/>
 <g stroke-width="1" fill-rule="evenodd" stroke-linecap="square" stroke="black" stroke-linejoin="bevel" fill="none">
  <g font-style="normal" stroke-width="1" font-size="32.5" transform="matrix(1,0,0,1,0,0)" stroke-opacity="1" stroke-linecap="square" font-family="MS Shell Dlg 2" stroke="#000000" stroke-linejoin="bevel" font-weight="400" fill="none"/>
  <g font-style="normal" stroke-width="1" font-size="32.5" transform="matrix(1,0,0,1,0,0)" stroke-opacity="1" stroke-linecap="square" font-family="MS Shell Dlg 2" stroke="#000000" stroke-linejoin="bevel" font-weight="400" fill="none"/>
  <g font-style="normal" stroke-width="1" font-size="32.5" transform="matrix(11.8,0,0,11.8,0,0)" stroke-opacity="1" stroke-linecap="square" font-family="MS Shell Dlg 2" stroke="#000000" stroke-linejoin="bevel" font-weight="400" fill="none"/>
  <g font-style="normal" stroke-width="1" font-size="32.5" transform="matrix(0.999067,0,0,0.999067,0,0)" stroke-opacity="1" stroke-linecap="square" font-family="MS Shell Dlg 2" stroke="#000000" stroke-linejoin="bevel" font-weight="400" fill="none"/>
  <g font-style="normal" font-size="32.5" transform="matrix(0.999067,0,0,0.999067,0,0)" font-family="MS Shell Dlg 2" stroke="none" font-weight="400" fill="#ffffff" fill-opacity="1">
   <path vector-effect="none" fill-rule="evenodd" d="M-2,-2 L1006,-2 L1006,1774 L-2,1774 L-2,-2"/>
  </g>
  <g font-style="normal" stroke-width="1" font-size="32.5" transform="matrix(0.999067,0,0,0.999067,0,0)" stroke-opacity="1" stroke-linecap="square" font-family="MS Shell Dlg 2" stroke="#000000" stroke-linejoin="bevel" font-weight="400" fill="none"/>
  <g font-style="normal" stroke-width="1" font-size="32.5" transform="matrix(11.8,0,0,11.8,0,0)" stroke-opacity="1" stroke-linecap="square" font-family="MS Shell Dlg 2" stroke="#000000" stroke-linejoin="bevel" font-weight="400" fill="none"/>
  <g font-style="normal" stroke-width="1" font-size="32.5" transform="matrix(11.8,0,0,11.8,0,0)" stroke-opacity="1" stroke-linecap="square" font-family="MS Shell Dlg 2" stroke="#000000" stroke-linejoin="bevel" font-weight="400" fill="none"/>
  <g font-style="normal" stroke-width="1" font-size="32.5" transform="matrix(11.8,0,0,11.8,0,0)" stroke-opacity="1" stroke-linecap="square" font-family="MS Shell Dlg 2" stroke="#000000" stroke-linejoin="bevel" font-weight="400" fill="none"/>
  <g font-style="normal" stroke-width="1" font-size="32.5" transform="matrix(11.8,0,0,11.8,0,0)" stroke-opacity="1" stroke-linecap="square" font-family="MS Shell Dlg 2" stroke="#000000" stroke-linejoin="bevel" font-weight="400" fill="none"/>
  <g font-style="normal" stroke-width="1" font-size="32.5" transform="matrix(11.8,0,0,11.8,9.44,0)" stroke-opacity="1" stroke-linecap="square" font-family="MS Shell Dlg 2" stroke="#000000" stroke-linejoin="bevel" font-weight="400" fill="none"/>
  <g font-style="normal" stroke-width="1" font-size="32.5" transform="matrix(11.8,0,0,11.8,9.44,0)" stroke-opacity="1" stroke-linecap="square" font-family="MS Shell Dlg 2" stroke="#000000" stroke-linejoin="bevel" font-weight="400" fill="none"/>
  <g font-style="normal" font-size="32.5" transform="matrix(11.8,0,0,11.8,9.44,0)" font-family="MS Shell Dlg 2" stroke="none" font-weight="400" fill="#ffffff" fill-opacity="1">
   <path vector-effect="none" fill-rule="evenodd" d="M0,0 L56.2,0 L56.2,149.6 L0,149.6 L0,0"/>
  </g>
  <g font-style="normal" stroke-width="1" font-size="32.5" transform="matrix(11.8,0,0,11.8,9.44,0)" stroke-opacity="1" stroke-linecap="square" font-family="MS Shell Dlg 2" stroke="#000000" stroke-linejoin="bevel" font-weight="400" fill="none"/>
  <g font-style="normal" stroke-width="1" font-size="32.5" transform="matrix(0.999067,0,0,0.999067,9.44,0)" stroke-opacity="1" stroke-linecap="square" font-family="MS Shell Dlg 2" stroke="#000000" stroke-linejoin="bevel" font-weight="400" fill="none"/>
  <g font-style="normal" stroke-width="1" font-size="32.5" transform="matrix(11.8,0,0,11.8,9.44,0)" stroke-opacity="1" stroke-linecap="square" font-family="MS Shell Dlg 2" stroke="#000000" stroke-linejoin="bevel" font-weight="400" fill="none"/>
  <g font-style="normal" stroke-width="1" font-size="42" transform="matrix(1.18,0,0,1.18,9.44,0)" stroke-opacity="1" stroke-linecap="square" font-family="MS Shell Dlg 2" stroke="#000000" stroke-linejoin="bevel" font-weight="400" fill="none">
   <text font-style="normal" font-size="42" y="97" font-family="MS Shell Dlg 2" stroke="none" xml:space="preserve" font-weight="400" x="20" fill="#000000" fill-opacity="1">Substations, kV</text>
  </g>
  <g font-style="normal" stroke-width="1" font-size="32.5" transform="matrix(11.8,0,0,11.8,9.44,0)" stroke-opacity="1" stroke-linecap="square" font-family="MS Shell Dlg 2" stroke="#000000" stroke-linejoin="bevel" font-weight="400" fill="none"/>
  <g font-style="normal" stroke-width="1" font-size="32.5" transform="matrix(0.999067,0,0,0.999067,56.64,149.86)" stroke-opacity="1" stroke-linecap="square" font-family="MS Shell Dlg 2" stroke="#232323" stroke-linejoin="bevel" font-weight="400" fill="#00b4c8" fill-opacity="1">
   <path vector-effect="non-scaling-stroke" fill-rule="evenodd" d="M34.7165,17 C34.7165,26.7846 26.7846,34.7165 17,34.7165 C7.21543,34.7165 -0.716535,26.7846 -0.716535,17 C-0.716535,7.21543 7.21543,-0.716535 17,-0.716535 C26.7846,-0.716535 34.7165,7.21543 34.7165,17 "/>
  </g>
  <g font-style="normal" stroke-width="1" font-size="32.5" transform="matrix(11.8,0,0,11.8,9.44,0)" stroke-opacity="1" stroke-linecap="square" font-family="MS Shell Dlg 2" stroke="#000000" stroke-linejoin="bevel" font-weight="400" fill="none"/>
  <g font-style="normal" stroke-width="1" font-size="42" transform="matrix(1.18,0,0,1.18,9.44,0)" stroke-opacity="1" stroke-linecap="square" font-family="MS Shell Dlg 2" stroke="#000000" stroke-linejoin="bevel" font-weight="400" fill="none">
   <text font-style="normal" font-size="42" y="158.5" font-family="MS Shell Dlg 2" stroke="none" xml:space="preserve" font-weight="400" x="110" fill="#000000" fill-opacity="1">110</text>
  </g>
  <g font-style="normal" stroke-width="1" font-size="32.5" transform="matrix(11.8,0,0,11.8,9.44,0)" stroke-opacity="1" stroke-linecap="square" font-family="MS Shell Dlg 2" stroke="#000000" stroke-linejoin="bevel" font-weight="400" fill="none"/>
  <g font-style="normal" stroke-width="1" font-size="32.5" transform="matrix(0.999067,0,0,0.999067,56.64,226.56)" stroke-opacity="1" stroke-linecap="square" font-family="MS Shell Dlg 2" stroke="#232323" stroke-linejoin="bevel" font-weight="400" fill="#c8c800" fill-opacity="1">
   <path vector-effect="non-scaling-stroke" fill-rule="evenodd" d="M34.7165,17 C34.7165,26.7846 26.7846,34.7165 17,34.7165 C7.21543,34.7165 -0.716535,26.7846 -0.716535,17 C-0.716535,7.21543 7.21543,-0.716535 17,-0.716535 C26.7846,-0.716535 34.7165,7.21543 34.7165,17 "/>
  </g>
  <g font-style="normal" stroke-width="1" font-size="32.5" transform="matrix(11.8,0,0,11.8,9.44,0)" stroke-opacity="1" stroke-linecap="square" font-family="MS Shell Dlg 2" stroke="#000000" stroke-linejoin="bevel" font-weight="400" fill="none"/>
  <g font-style="normal" stroke-width="1" font-size="42" transform="matrix(1.18,0,0,1.18,9.44,0)" stroke-opacity="1" stroke-linecap="square" font-family="MS Shell Dlg 2" stroke="#000000" stroke-linejoin="bevel" font-weight="400" fill="none">
   <text font-style="normal" font-size="42" y="223.5" font-family="MS Shell Dlg 2" stroke="none" xml:space="preserve" font-weight="400" x="110" fill="#000000" fill-opacity="1">220</text>
  </g>
  <g font-style="normal" stroke-width="1" font-size="32.5" transform="matrix(11.8,0,0,11.8,9.44,0)" stroke-opacity="1" stroke-linecap="square" font-family="MS Shell Dlg 2" stroke="#000000" stroke-linejoin="bevel" font-weight="400" fill="none"/>
  <g font-style="normal" stroke-width="1" font-size="32.5" transform="matrix(0.999067,0,0,0.999067,56.64,303.26)" stroke-opacity="1" stroke-linecap="square" font-family="MS Shell Dlg 2" stroke="#232323" stroke-linejoin="bevel" font-weight="400" fill="#008c00" fill-opacity="1">
   <path vector-effect="non-scaling-stroke" fill-rule="evenodd" d="M34.7165,17 C34.7165,26.7846 26.7846,34.7165 17,34.7165 C7.21543,34.7165 -0.716535,26.7846 -0.716535,17 C-0.716535,7.21543 7.21543,-0.716535 17,-0.716535 C26.7846,-0.716535 34.7165,7.21543 34.7165,17 "/>
  </g>
  <g font-style="normal" stroke-width="1" font-size="32.5" transform="matrix(11.8,0,0,11.8,9.44,0)" stroke-opacity="1" stroke-linecap="square" font-family="MS Shell Dlg 2" stroke="#000000" stroke-linejoin="bevel" font-weight="400" fill="none"/>
  <g font-style="normal" stroke-width="1" font-size="42" transform="matrix(1.18,0,0,1.18,9.44,0)" stroke-opacity="1" stroke-linecap="square" font-family="MS Shell Dlg 2" stroke="#000000" stroke-linejoin="bevel" font-weight="400" fill="none">
   <text font-style="normal" font-size="42" y="288.5" font-family="MS Shell Dlg 2" stroke="none" xml:space="preserve" font-weight="400" x="110" fill="#000000" fill-opacity="1">330</text>
  </g>
  <g font-style="normal" stroke-width="1" font-size="32.5" transform="matrix(11.8,0,0,11.8,9.44,0)" stroke-opacity="1" stroke-linecap="square" font-family="MS Shell Dlg 2" stroke="#000000" stroke-linejoin="bevel" font-weight="400" fill="none"/>
  <g font-style="normal" stroke-width="1" font-size="32.5" transform="matrix(0.999067,0,0,0.999067,56.64,379.96)" stroke-opacity="1" stroke-linecap="square" font-family="MS Shell Dlg 2" stroke="#232323" stroke-linejoin="bevel" font-weight="400" fill="#a50f0a" fill-opacity="1">
   <path vector-effect="non-scaling-stroke" fill-rule="evenodd" d="M34.7165,17 C34.7165,26.7846 26.7846,34.7165 17,34.7165 C7.21543,34.7165 -0.716535,26.7846 -0.716535,17 C-0.716535,7.21543 7.21543,-0.716535 17,-0.716535 C26.7846,-0.716535 34.7165,7.21543 34.7165,17 "/>
  </g>
  <g font-style="normal" stroke-width="1" font-size="32.5" transform="matrix(11.8,0,0,11.8,9.44,0)" stroke-opacity="1" stroke-linecap="square" font-family="MS Shell Dlg 2" stroke="#000000" stroke-linejoin="bevel" font-weight="400" fill="none"/>
  <g font-style="normal" stroke-width="1" font-size="42" transform="matrix(1.18,0,0,1.18,9.44,0)" stroke-opacity="1" stroke-linecap="square" font-family="MS Shell Dlg 2" stroke="#000000" stroke-linejoin="bevel" font-weight="400" fill="none">
   <text font-style="normal" font-size="42" y="353.5" font-family="MS Shell Dlg 2" stroke="none" xml:space="preserve" font-weight="400" x="110" fill="#000000" fill-opacity="1">500</text>
  </g>
  <g font-style="normal" stroke-width="1" font-size="32.5" transform="matrix(11.8,0,0,11.8,9.44,0)" stroke-opacity="1" stroke-linecap="square" font-family="MS Shell Dlg 2" stroke="#000000" stroke-linejoin="bevel" font-weight="400" fill="none"/>
  <g font-style="normal" stroke-width="1" font-size="32.5" transform="matrix(0.999067,0,0,0.999067,56.64,456.66)" stroke-opacity="1" stroke-linecap="square" font-family="MS Shell Dlg 2" stroke="#232323" stroke-linejoin="bevel" font-weight="400" fill="#0000c8" fill-opacity="1">
   <path vector-effect="non-scaling-stroke" fill-rule="evenodd" d="M34.7165,17 C34.7165,26.7846 26.7846,34.7165 17,34.7165 C7.21543,34.7165 -0.716535,26.7846 -0.716535,17 C-0.716535,7.21543 7.21543,-0.716535 17,-0.716535 C26.7846,-0.716535 34.7165,7.21543 34.7165,17 "/>
  </g>
  <g font-style="normal" stroke-width="1" font-size="32.5" transform="matrix(11.8,0,0,11.8,9.44,0)" stroke-opacity="1" stroke-linecap="square" font-family="MS Shell Dlg 2" stroke="#000000" stroke-linejoin="bevel" font-weight="400" fill="none"/>
  <g font-style="normal" stroke-width="1" font-size="42" transform="matrix(1.18,0,0,1.18,9.44,0)" stroke-opacity="1" stroke-linecap="square" font-family="MS Shell Dlg 2" stroke="#000000" stroke-linejoin="bevel" font-weight="400" fill="none">
   <text font-style="normal" font-size="42" y="418.5" font-family="MS Shell Dlg 2" stroke="none" xml:space="preserve" font-weight="400" x="110" fill="#000000" fill-opacity="1">750</text>
  </g>
  <g font-style="normal" stroke-width="1" font-size="32.5" transform="matrix(11.8,0,0,11.8,9.44,0)" stroke-opacity="1" stroke-linecap="square" font-family="MS Shell Dlg 2" stroke="#000000" stroke-linejoin="bevel" font-weight="400" fill="none"/>
  <g font-style="normal" stroke-width="4.72441" font-size="32.5" transform="matrix(0.999067,0,0,0.999067,62.54,539.26)" stroke-opacity="1" stroke-linecap="square" font-family="MS Shell Dlg 2" stroke="#000000" stroke-linejoin="bevel" font-weight="400" fill="#ffffff" fill-opacity="1">
   <path vector-effect="none" fill-rule="evenodd" d="M0.188976,0.188976 L23.811,0.188976 L23.811,23.811 L0.188976,23.811 L0.188976,0.188976"/>
  </g>
  <g font-style="normal" stroke-width="1" font-size="32.5" transform="matrix(11.8,0,0,11.8,9.44,0)" stroke-opacity="1" stroke-linecap="square" font-family="MS Shell Dlg 2" stroke="#000000" stroke-linejoin="bevel" font-weight="400" fill="none"/>
  <g font-style="normal" stroke-width="1" font-size="42" transform="matrix(1.18,0,0,1.18,9.44,0)" stroke-opacity="1" stroke-linecap="square" font-family="MS Shell Dlg 2" stroke="#000000" stroke-linejoin="bevel" font-weight="400" fill="none">
   <text font-style="normal" font-size="42" y="483.5" font-family="MS Shell Dlg 2" stroke="none" xml:space="preserve" font-weight="400" x="110" fill="#000000" fill-opacity="1">Power plants</text>
  </g>
  <g font-style="normal" stroke-width="1" font-size="32.5" transform="matrix(11.8,0,0,11.8,9.44,0)" stroke-opacity="1" stroke-linecap="square" font-family="MS Shell Dlg 2" stroke="#000000" stroke-linejoin="bevel" font-weight="400" fill="none"/>
  <g font-style="normal" stroke-width="1" font-size="42" transform="matrix(1.18,0,0,1.18,9.44,0)" stroke-opacity="1" stroke-linecap="square" font-family="MS Shell Dlg 2" stroke="#000000" stroke-linejoin="bevel" font-weight="400" fill="none">
   <text font-style="normal" font-size="42" y="559" font-family="MS Shell Dlg 2" stroke="none" xml:space="preserve" font-weight="400" x="20" fill="#000000" fill-opacity="1">Power lines, kV</text>
  </g>
  <g font-style="normal" stroke-width="1" font-size="32.5" transform="matrix(11.8,0,0,11.8,9.44,0)" stroke-opacity="1" stroke-linecap="square" font-family="MS Shell Dlg 2" stroke="#000000" stroke-linejoin="bevel" font-weight="400" fill="none"/>
  <g font-style="normal" stroke-width="5.90551" font-size="32.5" transform="matrix(0.999067,0,0,0.999067,33.04,689.12)" stroke-opacity="1" stroke-linecap="square" font-family="MS Shell Dlg 2" stroke="#c8c800" stroke-linejoin="bevel" font-weight="400" fill="none">
   <path vector-effect="none" fill-rule="evenodd" d="M0,23.5 L83,23.5"/>
  </g>
  <g font-style="normal" stroke-width="1" font-size="32.5" transform="matrix(11.8,0,0,11.8,9.44,0)" stroke-opacity="1" stroke-linecap="square" font-family="MS Shell Dlg 2" stroke="#000000" stroke-linejoin="bevel" font-weight="400" fill="none"/>
  <g font-style="normal" stroke-width="1" font-size="42" transform="matrix(1.18,0,0,1.18,9.44,0)" stroke-opacity="1" stroke-linecap="square" font-family="MS Shell Dlg 2" stroke="#000000" stroke-linejoin="bevel" font-weight="400" fill="none">
   <text font-style="normal" font-size="42" y="620.5" font-family="MS Shell Dlg 2" stroke="none" xml:space="preserve" font-weight="400" x="110" fill="#000000" fill-opacity="1">220</text>
  </g>
  <g font-style="normal" stroke-width="1" font-size="32.5" transform="matrix(11.8,0,0,11.8,9.44,0)" stroke-opacity="1" stroke-linecap="square" font-family="MS Shell Dlg 2" stroke="#000000" stroke-linejoin="bevel" font-weight="400" fill="none"/>
  <g font-style="normal" stroke-width="5.90551" font-size="32.5" transform="matrix(0.999067,0,0,0.999067,33.04,765.82)" stroke-opacity="1" stroke-linecap="square" font-family="MS Shell Dlg 2" stroke="#008c00" stroke-linejoin="bevel" font-weight="400" fill="none">
   <path vector-effect="none" fill-rule="evenodd" d="M0,23.5 L83,23.5"/>
  </g>
  <g font-style="normal" stroke-width="1" font-size="32.5" transform="matrix(11.8,0,0,11.8,9.44,0)" stroke-opacity="1" stroke-linecap="square" font-family="MS Shell Dlg 2" stroke="#000000" stroke-linejoin="bevel" font-weight="400" fill="none"/>
  <g font-style="normal" stroke-width="1" font-size="42" transform="matrix(1.18,0,0,1.18,9.44,0)" stroke-opacity="1" stroke-linecap="square" font-family="MS Shell Dlg 2" stroke="#000000" stroke-linejoin="bevel" font-weight="400" fill="none">
   <text font-style="normal" font-size="42" y="685.5" font-family="MS Shell Dlg 2" stroke="none" xml:space="preserve" font-weight="400" x="110" fill="#000000" fill-opacity="1">330</text>
  </g>
  <g font-style="normal" stroke-width="1" font-size="32.5" transform="matrix(11.8,0,0,11.8,9.44,0)" stroke-opacity="1" stroke-linecap="square" font-family="MS Shell Dlg 2" stroke="#000000" stroke-linejoin="bevel" font-weight="400" fill="none"/>
  <g font-style="normal" stroke-width="5.90551" font-size="32.5" transform="matrix(0.999067,0,0,0.999067,33.04,842.52)" stroke-opacity="1" stroke-linecap="square" font-family="MS Shell Dlg 2" stroke="#a50f0a" stroke-linejoin="bevel" font-weight="400" fill="none">
   <path vector-effect="none" fill-rule="evenodd" d="M0,23.5 L83,23.5"/>
  </g>
  <g font-style="normal" stroke-width="1" font-size="32.5" transform="matrix(11.8,0,0,11.8,9.44,0)" stroke-opacity="1" stroke-linecap="square" font-family="MS Shell Dlg 2" stroke="#000000" stroke-linejoin="bevel" font-weight="400" fill="none"/>
  <g font-style="normal" stroke-width="1" font-size="42" transform="matrix(1.18,0,0,1.18,9.44,0)" stroke-opacity="1" stroke-linecap="square" font-family="MS Shell Dlg 2" stroke="#000000" stroke-linejoin="bevel" font-weight="400" fill="none">
   <text font-style="normal" font-size="42" y="750.5" font-family="MS Shell Dlg 2" stroke="none" xml:space="preserve" font-weight="400" x="110" fill="#000000" fill-opacity="1">500</text>
  </g>
  <g font-style="normal" stroke-width="1" font-size="32.5" transform="matrix(11.8,0,0,11.8,9.44,0)" stroke-opacity="1" stroke-linecap="square" font-family="MS Shell Dlg 2" stroke="#000000" stroke-linejoin="bevel" font-weight="400" fill="none"/>
  <g font-style="normal" stroke-width="5.90551" font-size="32.5" transform="matrix(0.999067,0,0,0.999067,33.04,919.22)" stroke-opacity="1" stroke-linecap="square" font-family="MS Shell Dlg 2" stroke="#0000c8" stroke-linejoin="bevel" font-weight="400" fill="none">
   <path vector-effect="none" fill-rule="evenodd" d="M0,23.5 L83,23.5"/>
  </g>
  <g font-style="normal" stroke-width="1" font-size="32.5" transform="matrix(11.8,0,0,11.8,9.44,0)" stroke-opacity="1" stroke-linecap="square" font-family="MS Shell Dlg 2" stroke="#000000" stroke-linejoin="bevel" font-weight="400" fill="none"/>
  <g font-style="normal" stroke-width="1" font-size="42" transform="matrix(1.18,0,0,1.18,9.44,0)" stroke-opacity="1" stroke-linecap="square" font-family="MS Shell Dlg 2" stroke="#000000" stroke-linejoin="bevel" font-weight="400" fill="none">
   <text font-style="normal" font-size="42" y="815.5" font-family="MS Shell Dlg 2" stroke="none" xml:space="preserve" font-weight="400" x="110" fill="#000000" fill-opacity="1">750</text>
  </g>
  <g font-style="normal" stroke-width="1" font-size="32.5" transform="matrix(11.8,0,0,11.8,9.44,0)" stroke-opacity="1" stroke-linecap="square" font-family="MS Shell Dlg 2" stroke="#000000" stroke-linejoin="bevel" font-weight="400" fill="none"/>
  <g font-style="normal" stroke-width="1" font-size="42" transform="matrix(1.18,0,0,1.18,9.44,0)" stroke-opacity="1" stroke-linecap="square" font-family="MS Shell Dlg 2" stroke="#000000" stroke-linejoin="bevel" font-weight="400" fill="none">
   <text font-style="normal" font-size="42" y="891" font-family="MS Shell Dlg 2" stroke="none" xml:space="preserve" font-weight="400" x="20" fill="#000000" fill-opacity="1">Power line modifications</text>
  </g>
  <g font-style="normal" stroke-width="1" font-size="32.5" transform="matrix(11.8,0,0,11.8,9.44,0)" stroke-opacity="1" stroke-linecap="square" font-family="MS Shell Dlg 2" stroke="#000000" stroke-linejoin="bevel" font-weight="400" fill="none"/>
  <g font-style="normal" stroke-width="11.811" font-size="32.5" transform="matrix(0.999067,0,0,0.999067,33.04,1080.88)" stroke-opacity="1" stroke-linecap="square" font-family="MS Shell Dlg 2" stroke="#24e5d8" stroke-linejoin="bevel" font-weight="400" fill="none">
   <path vector-effect="none" fill-rule="evenodd" d="M0,23.5 L83,23.5"/>
  </g>
  <g font-style="normal" stroke-width="1" font-size="32.5" transform="matrix(11.8,0,0,11.8,9.44,0)" stroke-opacity="1" stroke-linecap="square" font-family="MS Shell Dlg 2" stroke="#000000" stroke-linejoin="bevel" font-weight="400" fill="none"/>
  <g font-style="normal" stroke-width="1" font-size="42" transform="matrix(1.18,0,0,1.18,9.44,0)" stroke-opacity="1" stroke-linecap="square" font-family="MS Shell Dlg 2" stroke="#000000" stroke-linejoin="bevel" font-weight="400" fill="none">
   <text font-style="normal" font-size="42" y="952.5" font-family="MS Shell Dlg 2" stroke="none" xml:space="preserve" font-weight="400" x="110" fill="#000000" fill-opacity="1">Branch construction</text>
  </g>
  <g font-style="normal" stroke-width="1" font-size="32.5" transform="matrix(11.8,0,0,11.8,9.44,0)" stroke-opacity="1" stroke-linecap="square" font-family="MS Shell Dlg 2" stroke="#000000" stroke-linejoin="bevel" font-weight="400" fill="none"/>
  <g font-style="normal" stroke-width="11.811" font-size="32.5" transform="matrix(0.999067,0,0,0.999067,33.04,1157.58)" stroke-opacity="1" stroke-linecap="square" font-family="MS Shell Dlg 2" stroke="#e27d64" stroke-linejoin="bevel" font-weight="400" fill="none">
   <path vector-effect="none" fill-rule="evenodd" d="M0,23.5 L83,23.5"/>
  </g>
  <g font-style="normal" stroke-width="1" font-size="32.5" transform="matrix(11.8,0,0,11.8,9.44,0)" stroke-opacity="1" stroke-linecap="square" font-family="MS Shell Dlg 2" stroke="#000000" stroke-linejoin="bevel" font-weight="400" fill="none"/>
  <g font-style="normal" stroke-width="1" font-size="42" transform="matrix(1.18,0,0,1.18,9.44,0)" stroke-opacity="1" stroke-linecap="square" font-family="MS Shell Dlg 2" stroke="#000000" stroke-linejoin="bevel" font-weight="400" fill="none">
   <text font-style="normal" font-size="42" y="1017.5" font-family="MS Shell Dlg 2" stroke="none" xml:space="preserve" font-weight="400" x="110" fill="#000000" fill-opacity="1">Branch dismantling</text>
  </g>
  <g font-style="normal" stroke-width="1" font-size="32.5" transform="matrix(11.8,0,0,11.8,9.44,0)" stroke-opacity="1" stroke-linecap="square" font-family="MS Shell Dlg 2" stroke="#000000" stroke-linejoin="bevel" font-weight="400" fill="none"/>
  <g font-style="normal" stroke-width="11.811" font-size="32.5" transform="matrix(0.999067,0,0,0.999067,33.04,1234.28)" stroke-opacity="1" stroke-linecap="square" font-family="MS Shell Dlg 2" stroke="#10e829" stroke-linejoin="bevel" font-weight="400" fill="none">
   <path vector-effect="none" fill-rule="evenodd" d="M0,23.5 L83,23.5"/>
  </g>
  <g font-style="normal" stroke-width="1" font-size="32.5" transform="matrix(11.8,0,0,11.8,9.44,0)" stroke-opacity="1" stroke-linecap="square" font-family="MS Shell Dlg 2" stroke="#000000" stroke-linejoin="bevel" font-weight="400" fill="none"/>
  <g font-style="normal" stroke-width="1" font-size="42" transform="matrix(1.18,0,0,1.18,9.44,0)" stroke-opacity="1" stroke-linecap="square" font-family="MS Shell Dlg 2" stroke="#000000" stroke-linejoin="bevel" font-weight="400" fill="none">
   <text font-style="normal" font-size="42" y="1082.5" font-family="MS Shell Dlg 2" stroke="none" xml:space="preserve" font-weight="400" x="110" fill="#000000" fill-opacity="1">Cut construction</text>
  </g>
  <g font-style="normal" stroke-width="1" font-size="32.5" transform="matrix(11.8,0,0,11.8,9.44,0)" stroke-opacity="1" stroke-linecap="square" font-family="MS Shell Dlg 2" stroke="#000000" stroke-linejoin="bevel" font-weight="400" fill="none"/>
  <g font-style="normal" stroke-width="11.811" font-size="32.5" transform="matrix(0.999067,0,0,0.999067,33.04,1310.98)" stroke-opacity="1" stroke-linecap="square" font-family="MS Shell Dlg 2" stroke="#e327da" stroke-linejoin="bevel" font-weight="400" fill="none">
   <path vector-effect="none" fill-rule="evenodd" d="M0,23.5 L83,23.5"/>
  </g>
  <g font-style="normal" stroke-width="1" font-size="32.5" transform="matrix(11.8,0,0,11.8,9.44,0)" stroke-opacity="1" stroke-linecap="square" font-family="MS Shell Dlg 2" stroke="#000000" stroke-linejoin="bevel" font-weight="400" fill="none"/>
  <g font-style="normal" stroke-width="1" font-size="42" transform="matrix(1.18,0,0,1.18,9.44,0)" stroke-opacity="1" stroke-linecap="square" font-family="MS Shell Dlg 2" stroke="#000000" stroke-linejoin="bevel" font-weight="400" fill="none">
   <text font-style="normal" font-size="42" y="1147.5" font-family="MS Shell Dlg 2" stroke="none" xml:space="preserve" font-weight="400" x="110" fill="#000000" fill-opacity="1">Cut dismantling</text>
  </g>
  <g font-style="normal" stroke-width="1" font-size="32.5" transform="matrix(11.8,0,0,11.8,9.44,0)" stroke-opacity="1" stroke-linecap="square" font-family="MS Shell Dlg 2" stroke="#000000" stroke-linejoin="bevel" font-weight="400" fill="none"/>
  <g font-style="normal" stroke-width="11.811" font-size="32.5" transform="matrix(0.999067,0,0,0.999067,33.04,1387.68)" stroke-opacity="1" stroke-linecap="square" font-family="MS Shell Dlg 2" stroke="#e31a1c" stroke-linejoin="bevel" font-weight="400" fill="none">
   <path vector-effect="none" fill-rule="evenodd" d="M0,23.5 L83,23.5"/>
  </g>
  <g font-style="normal" stroke-width="1" font-size="32.5" transform="matrix(11.8,0,0,11.8,9.44,0)" stroke-opacity="1" stroke-linecap="square" font-family="MS Shell Dlg 2" stroke="#000000" stroke-linejoin="bevel" font-weight="400" fill="none"/>
  <g font-style="normal" stroke-width="1" font-size="42" transform="matrix(1.18,0,0,1.18,9.44,0)" stroke-opacity="1" stroke-linecap="square" font-family="MS Shell Dlg 2" stroke="#000000" stroke-linejoin="bevel" font-weight="400" fill="none">
   <text font-style="normal" font-size="42" y="1212.5" font-family="MS Shell Dlg 2" stroke="none" xml:space="preserve" font-weight="400" x="110" fill="#000000" fill-opacity="1">Line dismantling</text>
  </g>
  <g font-style="normal" stroke-width="1" font-size="32.5" transform="matrix(11.8,0,0,11.8,9.44,0)" stroke-opacity="1" stroke-linecap="square" font-family="MS Shell Dlg 2" stroke="#000000" stroke-linejoin="bevel" font-weight="400" fill="none"/>
  <g font-style="normal" stroke-width="11.811" font-size="32.5" transform="matrix(0.999067,0,0,0.999067,33.04,1464.38)" stroke-opacity="1" stroke-linecap="square" font-family="MS Shell Dlg 2" stroke="#1d8c3b" stroke-linejoin="bevel" font-weight="400" fill="none">
   <path vector-effect="none" fill-rule="evenodd" d="M0,23.5 L83,23.5"/>
  </g>
  <g font-style="normal" stroke-width="1" font-size="32.5" transform="matrix(11.8,0,0,11.8,9.44,0)" stroke-opacity="1" stroke-linecap="square" font-family="MS Shell Dlg 2" stroke="#000000" stroke-linejoin="bevel" font-weight="400" fill="none"/>
  <g font-style="normal" stroke-width="1" font-size="42" transform="matrix(1.18,0,0,1.18,9.44,0)" stroke-opacity="1" stroke-linecap="square" font-family="MS Shell Dlg 2" stroke="#000000" stroke-linejoin="bevel" font-weight="400" fill="none">
   <text font-style="normal" font-size="42" y="1277.5" font-family="MS Shell Dlg 2" stroke="none" xml:space="preserve" font-weight="400" x="110" fill="#000000" fill-opacity="1">New line construction</text>
  </g>
  <g font-style="normal" stroke-width="1" font-size="32.5" transform="matrix(11.8,0,0,11.8,9.44,0)" stroke-opacity="1" stroke-linecap="square" font-family="MS Shell Dlg 2" stroke="#000000" stroke-linejoin="bevel" font-weight="400" fill="none"/>
  <g font-style="normal" stroke-width="11.811" font-size="32.5" transform="matrix(0.999067,0,0,0.999067,33.04,1541.08)" stroke-opacity="1" stroke-linecap="square" font-family="MS Shell Dlg 2" stroke="#52ced2" stroke-linejoin="bevel" font-weight="400" fill="none">
   <path vector-effect="none" fill-rule="evenodd" d="M0,23.5 L83,23.5"/>
  </g>
  <g font-style="normal" stroke-width="1" font-size="32.5" transform="matrix(11.8,0,0,11.8,9.44,0)" stroke-opacity="1" stroke-linecap="square" font-family="MS Shell Dlg 2" stroke="#000000" stroke-linejoin="bevel" font-weight="400" fill="none"/>
  <g font-style="normal" stroke-width="1" font-size="42" transform="matrix(1.18,0,0,1.18,9.44,0)" stroke-opacity="1" stroke-linecap="square" font-family="MS Shell Dlg 2" stroke="#000000" stroke-linejoin="bevel" font-weight="400" fill="none">
   <text font-style="normal" font-size="42" y="1342.5" font-family="MS Shell Dlg 2" stroke="none" xml:space="preserve" font-weight="400" x="110" fill="#000000" fill-opacity="1">Re-routing construction</text>
  </g>
  <g font-style="normal" stroke-width="1" font-size="32.5" transform="matrix(11.8,0,0,11.8,9.44,0)" stroke-opacity="1" stroke-linecap="square" font-family="MS Shell Dlg 2" stroke="#000000" stroke-linejoin="bevel" font-weight="400" fill="none"/>
  <g font-style="normal" stroke-width="11.811" font-size="32.5" transform="matrix(0.999067,0,0,0.999067,33.04,1617.78)" stroke-opacity="1" stroke-linecap="square" font-family="MS Shell Dlg 2" stroke="#f0d730" stroke-linejoin="bevel" font-weight="400" fill="none">
   <path vector-effect="none" fill-rule="evenodd" d="M0,23.5 L83,23.5"/>
  </g>
  <g font-style="normal" stroke-width="1" font-size="32.5" transform="matrix(11.8,0,0,11.8,9.44,0)" stroke-opacity="1" stroke-linecap="square" font-family="MS Shell Dlg 2" stroke="#000000" stroke-linejoin="bevel" font-weight="400" fill="none"/>
  <g font-style="normal" stroke-width="1" font-size="42" transform="matrix(1.18,0,0,1.18,9.44,0)" stroke-opacity="1" stroke-linecap="square" font-family="MS Shell Dlg 2" stroke="#000000" stroke-linejoin="bevel" font-weight="400" fill="none">
   <text font-style="normal" font-size="42" y="1407.5" font-family="MS Shell Dlg 2" stroke="none" xml:space="preserve" font-weight="400" x="110" fill="#000000" fill-opacity="1">Re-routing dismantling</text>
  </g>
  <g font-style="normal" stroke-width="1" font-size="32.5" transform="matrix(11.8,0,0,11.8,9.44,0)" stroke-opacity="1" stroke-linecap="square" font-family="MS Shell Dlg 2" stroke="#000000" stroke-linejoin="bevel" font-weight="400" fill="none"/>
  <g font-style="normal" stroke-width="3.07087" font-size="32.5" transform="matrix(0.999067,0,0,0.999067,33.04,1694.48)" stroke-opacity="1" stroke-linecap="square" font-family="MS Shell Dlg 2" stroke="#a8a8a8" stroke-linejoin="bevel" font-weight="400" fill="none">
   <path vector-effect="none" fill-rule="evenodd" d="M0,23.5 L83,23.5"/>
  </g>
  <g font-style="normal" stroke-width="1" font-size="32.5" transform="matrix(11.8,0,0,11.8,9.44,0)" stroke-opacity="1" stroke-linecap="square" font-family="MS Shell Dlg 2" stroke="#000000" stroke-linejoin="bevel" font-weight="400" fill="none"/>
  <g font-style="normal" stroke-width="1" font-size="42" transform="matrix(1.18,0,0,1.18,9.44,0)" stroke-opacity="1" stroke-linecap="square" font-family="MS Shell Dlg 2" stroke="#000000" stroke-linejoin="bevel" font-weight="400" fill="none">
   <text font-style="normal" font-size="42" y="1472.5" font-family="MS Shell Dlg 2" stroke="none" xml:space="preserve" font-weight="400" x="110" fill="#000000" fill-opacity="1">Unchanged segments</text>
  </g>
  <g font-style="normal" stroke-width="1" font-size="32.5" transform="matrix(11.8,0,0,11.8,9.44,0)" stroke-opacity="1" stroke-linecap="square" font-family="MS Shell Dlg 2" stroke="#000000" stroke-linejoin="bevel" font-weight="400" fill="none"/>
  <g font-style="normal" stroke-width="1" font-size="32.5" transform="matrix(0.999067,0,0,0.999067,9.44,0)" stroke-opacity="1" stroke-linecap="square" font-family="MS Shell Dlg 2" stroke="#000000" stroke-linejoin="bevel" font-weight="400" fill="none"/>
  <g font-style="normal" stroke-width="1" font-size="32.5" transform="matrix(11.8,0,0,11.8,9.44,0)" stroke-opacity="1" stroke-linecap="square" font-family="MS Shell Dlg 2" stroke="#000000" stroke-linejoin="bevel" font-weight="400" fill="none"/>
  <g font-style="normal" stroke-width="1" font-size="32.5" transform="matrix(11.8,0,0,11.8,9.44,0)" stroke-opacity="1" stroke-linecap="square" font-family="MS Shell Dlg 2" stroke="#000000" stroke-linejoin="bevel" font-weight="400" fill="none"/>
  <g font-style="normal" stroke-width="1" font-size="32.5" transform="matrix(11.8,0,0,11.8,487.34,0)" stroke-opacity="1" stroke-linecap="square" font-family="MS Shell Dlg 2" stroke="#000000" stroke-linejoin="bevel" font-weight="400" fill="none"/>
  <g font-style="normal" stroke-width="1" font-size="32.5" transform="matrix(11.8,0,0,11.8,487.34,0)" stroke-opacity="1" stroke-linecap="square" font-family="MS Shell Dlg 2" stroke="#000000" stroke-linejoin="bevel" font-weight="400" fill="none"/>
  <g font-style="normal" font-size="32.5" transform="matrix(11.8,0,0,11.8,487.34,0)" font-family="MS Shell Dlg 2" stroke="none" font-weight="400" fill="#ffffff" fill-opacity="1">
   <path vector-effect="none" fill-rule="evenodd" d="M0,0 L43.7,0 L43.7,76.7 L0,76.7 L0,0"/>
  </g>
  <g font-style="normal" stroke-width="1" font-size="32.5" transform="matrix(11.8,0,0,11.8,487.34,0)" stroke-opacity="1" stroke-linecap="square" font-family="MS Shell Dlg 2" stroke="#000000" stroke-linejoin="bevel" font-weight="400" fill="none"/>
  <g font-style="normal" stroke-width="1" font-size="32.5" transform="matrix(0.999067,0,0,0.999067,487.34,0)" stroke-opacity="1" stroke-linecap="square" font-family="MS Shell Dlg 2" stroke="#000000" stroke-linejoin="bevel" font-weight="400" fill="none"/>
  <g font-style="normal" stroke-width="1" font-size="32.5" transform="matrix(11.8,0,0,11.8,487.34,0)" stroke-opacity="1" stroke-linecap="square" font-family="MS Shell Dlg 2" stroke="#000000" stroke-linejoin="bevel" font-weight="400" fill="none"/>
  <g font-style="normal" stroke-width="1" font-size="42" transform="matrix(1.18,0,0,1.18,487.34,0)" stroke-opacity="1" stroke-linecap="square" font-family="MS Shell Dlg 2" stroke="#000000" stroke-linejoin="bevel" font-weight="400" fill="none">
   <text font-style="normal" font-size="42" y="97" font-family="MS Shell Dlg 2" stroke="none" xml:space="preserve" font-weight="400" x="20" fill="#000000" fill-opacity="1">Power line age, years</text>
  </g>
  <g font-style="normal" stroke-width="1" font-size="32.5" transform="matrix(11.8,0,0,11.8,487.34,0)" stroke-opacity="1" stroke-linecap="square" font-family="MS Shell Dlg 2" stroke="#000000" stroke-linejoin="bevel" font-weight="400" fill="none"/>
  <g font-style="normal" stroke-width="11.811" font-size="32.5" transform="matrix(0.999067,0,0,0.999067,510.94,143.96)" stroke-opacity="1" stroke-linecap="square" font-family="MS Shell Dlg 2" stroke="#fde725" stroke-linejoin="bevel" font-weight="400" fill="none">
   <path vector-effect="none" fill-rule="evenodd" d="M0,23.5 L83,23.5"/>
  </g>
  <g font-style="normal" stroke-width="1" font-size="32.5" transform="matrix(11.8,0,0,11.8,487.34,0)" stroke-opacity="1" stroke-linecap="square" font-family="MS Shell Dlg 2" stroke="#000000" stroke-linejoin="bevel" font-weight="400" fill="none"/>
  <g font-style="normal" stroke-width="1" font-size="42" transform="matrix(1.18,0,0,1.18,487.34,0)" stroke-opacity="1" stroke-linecap="square" font-family="MS Shell Dlg 2" stroke="#000000" stroke-linejoin="bevel" font-weight="400" fill="none">
   <text font-style="normal" font-size="42" y="158.5" font-family="MS Shell Dlg 2" stroke="none" xml:space="preserve" font-weight="400" x="110" fill="#000000" fill-opacity="1">less than 2</text>
  </g>
  <g font-style="normal" stroke-width="1" font-size="32.5" transform="matrix(11.8,0,0,11.8,487.34,0)" stroke-opacity="1" stroke-linecap="square" font-family="MS Shell Dlg 2" stroke="#000000" stroke-linejoin="bevel" font-weight="400" fill="none"/>
  <g font-style="normal" stroke-width="11.811" font-size="32.5" transform="matrix(0.999067,0,0,0.999067,510.94,220.66)" stroke-opacity="1" stroke-linecap="square" font-family="MS Shell Dlg 2" stroke="#b4de2c" stroke-linejoin="bevel" font-weight="400" fill="none">
   <path vector-effect="none" fill-rule="evenodd" d="M0,23.5 L83,23.5"/>
  </g>
  <g font-style="normal" stroke-width="1" font-size="32.5" transform="matrix(11.8,0,0,11.8,487.34,0)" stroke-opacity="1" stroke-linecap="square" font-family="MS Shell Dlg 2" stroke="#000000" stroke-linejoin="bevel" font-weight="400" fill="none"/>
  <g font-style="normal" stroke-width="1" font-size="42" transform="matrix(1.18,0,0,1.18,487.34,0)" stroke-opacity="1" stroke-linecap="square" font-family="MS Shell Dlg 2" stroke="#000000" stroke-linejoin="bevel" font-weight="400" fill="none">
   <text font-style="normal" font-size="42" y="223.5" font-family="MS Shell Dlg 2" stroke="none" xml:space="preserve" font-weight="400" x="110" fill="#000000" fill-opacity="1">2 - 5</text>
  </g>
  <g font-style="normal" stroke-width="1" font-size="32.5" transform="matrix(11.8,0,0,11.8,487.34,0)" stroke-opacity="1" stroke-linecap="square" font-family="MS Shell Dlg 2" stroke="#000000" stroke-linejoin="bevel" font-weight="400" fill="none"/>
  <g font-style="normal" stroke-width="11.811" font-size="32.5" transform="matrix(0.999067,0,0,0.999067,510.94,297.36)" stroke-opacity="1" stroke-linecap="square" font-family="MS Shell Dlg 2" stroke="#6cce59" stroke-linejoin="bevel" font-weight="400" fill="none">
   <path vector-effect="none" fill-rule="evenodd" d="M0,23.5 L83,23.5"/>
  </g>
  <g font-style="normal" stroke-width="1" font-size="32.5" transform="matrix(11.8,0,0,11.8,487.34,0)" stroke-opacity="1" stroke-linecap="square" font-family="MS Shell Dlg 2" stroke="#000000" stroke-linejoin="bevel" font-weight="400" fill="none"/>
  <g font-style="normal" stroke-width="1" font-size="42" transform="matrix(1.18,0,0,1.18,487.34,0)" stroke-opacity="1" stroke-linecap="square" font-family="MS Shell Dlg 2" stroke="#000000" stroke-linejoin="bevel" font-weight="400" fill="none">
   <text font-style="normal" font-size="42" y="288.5" font-family="MS Shell Dlg 2" stroke="none" xml:space="preserve" font-weight="400" x="110" fill="#000000" fill-opacity="1">5 - 10</text>
  </g>
  <g font-style="normal" stroke-width="1" font-size="32.5" transform="matrix(11.8,0,0,11.8,487.34,0)" stroke-opacity="1" stroke-linecap="square" font-family="MS Shell Dlg 2" stroke="#000000" stroke-linejoin="bevel" font-weight="400" fill="none"/>
  <g font-style="normal" stroke-width="11.811" font-size="32.5" transform="matrix(0.999067,0,0,0.999067,510.94,374.06)" stroke-opacity="1" stroke-linecap="square" font-family="MS Shell Dlg 2" stroke="#35b779" stroke-linejoin="bevel" font-weight="400" fill="none">
   <path vector-effect="none" fill-rule="evenodd" d="M0,23.5 L83,23.5"/>
  </g>
  <g font-style="normal" stroke-width="1" font-size="32.5" transform="matrix(11.8,0,0,11.8,487.34,0)" stroke-opacity="1" stroke-linecap="square" font-family="MS Shell Dlg 2" stroke="#000000" stroke-linejoin="bevel" font-weight="400" fill="none"/>
  <g font-style="normal" stroke-width="1" font-size="42" transform="matrix(1.18,0,0,1.18,487.34,0)" stroke-opacity="1" stroke-linecap="square" font-family="MS Shell Dlg 2" stroke="#000000" stroke-linejoin="bevel" font-weight="400" fill="none">
   <text font-style="normal" font-size="42" y="353.5" font-family="MS Shell Dlg 2" stroke="none" xml:space="preserve" font-weight="400" x="110" fill="#000000" fill-opacity="1">10 - 15</text>
  </g>
  <g font-style="normal" stroke-width="1" font-size="32.5" transform="matrix(11.8,0,0,11.8,487.34,0)" stroke-opacity="1" stroke-linecap="square" font-family="MS Shell Dlg 2" stroke="#000000" stroke-linejoin="bevel" font-weight="400" fill="none"/>
  <g font-style="normal" stroke-width="11.811" font-size="32.5" transform="matrix(0.999067,0,0,0.999067,510.94,450.76)" stroke-opacity="1" stroke-linecap="square" font-family="MS Shell Dlg 2" stroke="#1e9e89" stroke-linejoin="bevel" font-weight="400" fill="none">
   <path vector-effect="none" fill-rule="evenodd" d="M0,23.5 L83,23.5"/>
  </g>
  <g font-style="normal" stroke-width="1" font-size="32.5" transform="matrix(11.8,0,0,11.8,487.34,0)" stroke-opacity="1" stroke-linecap="square" font-family="MS Shell Dlg 2" stroke="#000000" stroke-linejoin="bevel" font-weight="400" fill="none"/>
  <g font-style="normal" stroke-width="1" font-size="42" transform="matrix(1.18,0,0,1.18,487.34,0)" stroke-opacity="1" stroke-linecap="square" font-family="MS Shell Dlg 2" stroke="#000000" stroke-linejoin="bevel" font-weight="400" fill="none">
   <text font-style="normal" font-size="42" y="418.5" font-family="MS Shell Dlg 2" stroke="none" xml:space="preserve" font-weight="400" x="110" fill="#000000" fill-opacity="1">15 - 20</text>
  </g>
  <g font-style="normal" stroke-width="1" font-size="32.5" transform="matrix(11.8,0,0,11.8,487.34,0)" stroke-opacity="1" stroke-linecap="square" font-family="MS Shell Dlg 2" stroke="#000000" stroke-linejoin="bevel" font-weight="400" fill="none"/>
  <g font-style="normal" stroke-width="11.811" font-size="32.5" transform="matrix(0.999067,0,0,0.999067,510.94,527.46)" stroke-opacity="1" stroke-linecap="square" font-family="MS Shell Dlg 2" stroke="#26838e" stroke-linejoin="bevel" font-weight="400" fill="none">
   <path vector-effect="none" fill-rule="evenodd" d="M0,23.5 L83,23.5"/>
  </g>
  <g font-style="normal" stroke-width="1" font-size="32.5" transform="matrix(11.8,0,0,11.8,487.34,0)" stroke-opacity="1" stroke-linecap="square" font-family="MS Shell Dlg 2" stroke="#000000" stroke-linejoin="bevel" font-weight="400" fill="none"/>
  <g font-style="normal" stroke-width="1" font-size="42" transform="matrix(1.18,0,0,1.18,487.34,0)" stroke-opacity="1" stroke-linecap="square" font-family="MS Shell Dlg 2" stroke="#000000" stroke-linejoin="bevel" font-weight="400" fill="none">
   <text font-style="normal" font-size="42" y="483.5" font-family="MS Shell Dlg 2" stroke="none" xml:space="preserve" font-weight="400" x="110" fill="#000000" fill-opacity="1">20 - 30</text>
  </g>
  <g font-style="normal" stroke-width="1" font-size="32.5" transform="matrix(11.8,0,0,11.8,487.34,0)" stroke-opacity="1" stroke-linecap="square" font-family="MS Shell Dlg 2" stroke="#000000" stroke-linejoin="bevel" font-weight="400" fill="none"/>
  <g font-style="normal" stroke-width="11.811" font-size="32.5" transform="matrix(0.999067,0,0,0.999067,510.94,604.16)" stroke-opacity="1" stroke-linecap="square" font-family="MS Shell Dlg 2" stroke="#31688e" stroke-linejoin="bevel" font-weight="400" fill="none">
   <path vector-effect="none" fill-rule="evenodd" d="M0,23.5 L83,23.5"/>
  </g>
  <g font-style="normal" stroke-width="1" font-size="32.5" transform="matrix(11.8,0,0,11.8,487.34,0)" stroke-opacity="1" stroke-linecap="square" font-family="MS Shell Dlg 2" stroke="#000000" stroke-linejoin="bevel" font-weight="400" fill="none"/>
  <g font-style="normal" stroke-width="1" font-size="42" transform="matrix(1.18,0,0,1.18,487.34,0)" stroke-opacity="1" stroke-linecap="square" font-family="MS Shell Dlg 2" stroke="#000000" stroke-linejoin="bevel" font-weight="400" fill="none">
   <text font-style="normal" font-size="42" y="548.5" font-family="MS Shell Dlg 2" stroke="none" xml:space="preserve" font-weight="400" x="110" fill="#000000" fill-opacity="1">30 - 40</text>
  </g>
  <g font-style="normal" stroke-width="1" font-size="32.5" transform="matrix(11.8,0,0,11.8,487.34,0)" stroke-opacity="1" stroke-linecap="square" font-family="MS Shell Dlg 2" stroke="#000000" stroke-linejoin="bevel" font-weight="400" fill="none"/>
  <g font-style="normal" stroke-width="11.811" font-size="32.5" transform="matrix(0.999067,0,0,0.999067,510.94,680.86)" stroke-opacity="1" stroke-linecap="square" font-family="MS Shell Dlg 2" stroke="#3e4a89" stroke-linejoin="bevel" font-weight="400" fill="none">
   <path vector-effect="none" fill-rule="evenodd" d="M0,23.5 L83,23.5"/>
  </g>
  <g font-style="normal" stroke-width="1" font-size="32.5" transform="matrix(11.8,0,0,11.8,487.34,0)" stroke-opacity="1" stroke-linecap="square" font-family="MS Shell Dlg 2" stroke="#000000" stroke-linejoin="bevel" font-weight="400" fill="none"/>
  <g font-style="normal" stroke-width="1" font-size="42" transform="matrix(1.18,0,0,1.18,487.34,0)" stroke-opacity="1" stroke-linecap="square" font-family="MS Shell Dlg 2" stroke="#000000" stroke-linejoin="bevel" font-weight="400" fill="none">
   <text font-style="normal" font-size="42" y="613.5" font-family="MS Shell Dlg 2" stroke="none" xml:space="preserve" font-weight="400" x="110" fill="#000000" fill-opacity="1">40 - 50</text>
  </g>
  <g font-style="normal" stroke-width="1" font-size="32.5" transform="matrix(11.8,0,0,11.8,487.34,0)" stroke-opacity="1" stroke-linecap="square" font-family="MS Shell Dlg 2" stroke="#000000" stroke-linejoin="bevel" font-weight="400" fill="none"/>
  <g font-style="normal" stroke-width="11.811" font-size="32.5" transform="matrix(0.999067,0,0,0.999067,510.94,757.56)" stroke-opacity="1" stroke-linecap="square" font-family="MS Shell Dlg 2" stroke="#472878" stroke-linejoin="bevel" font-weight="400" fill="none">
   <path vector-effect="none" fill-rule="evenodd" d="M0,23.5 L83,23.5"/>
  </g>
  <g font-style="normal" stroke-width="1" font-size="32.5" transform="matrix(11.8,0,0,11.8,487.34,0)" stroke-opacity="1" stroke-linecap="square" font-family="MS Shell Dlg 2" stroke="#000000" stroke-linejoin="bevel" font-weight="400" fill="none"/>
  <g font-style="normal" stroke-width="1" font-size="42" transform="matrix(1.18,0,0,1.18,487.34,0)" stroke-opacity="1" stroke-linecap="square" font-family="MS Shell Dlg 2" stroke="#000000" stroke-linejoin="bevel" font-weight="400" fill="none">
   <text font-style="normal" font-size="42" y="678.5" font-family="MS Shell Dlg 2" stroke="none" xml:space="preserve" font-weight="400" x="110" fill="#000000" fill-opacity="1">50 - 60</text>
  </g>
  <g font-style="normal" stroke-width="1" font-size="32.5" transform="matrix(11.8,0,0,11.8,487.34,0)" stroke-opacity="1" stroke-linecap="square" font-family="MS Shell Dlg 2" stroke="#000000" stroke-linejoin="bevel" font-weight="400" fill="none"/>
  <g font-style="normal" stroke-width="11.811" font-size="32.5" transform="matrix(0.999067,0,0,0.999067,510.94,834.26)" stroke-opacity="1" stroke-linecap="square" font-family="MS Shell Dlg 2" stroke="#440154" stroke-linejoin="bevel" font-weight="400" fill="none">
   <path vector-effect="none" fill-rule="evenodd" d="M0,23.5 L83,23.5"/>
  </g>
  <g font-style="normal" stroke-width="1" font-size="32.5" transform="matrix(11.8,0,0,11.8,487.34,0)" stroke-opacity="1" stroke-linecap="square" font-family="MS Shell Dlg 2" stroke="#000000" stroke-linejoin="bevel" font-weight="400" fill="none"/>
  <g font-style="normal" stroke-width="1" font-size="42" transform="matrix(1.18,0,0,1.18,487.34,0)" stroke-opacity="1" stroke-linecap="square" font-family="MS Shell Dlg 2" stroke="#000000" stroke-linejoin="bevel" font-weight="400" fill="none">
   <text font-style="normal" font-size="42" y="743.5" font-family="MS Shell Dlg 2" stroke="none" xml:space="preserve" font-weight="400" x="110" fill="#000000" fill-opacity="1">more than 60</text>
  </g>
  <g font-style="normal" stroke-width="1" font-size="32.5" transform="matrix(11.8,0,0,11.8,487.34,0)" stroke-opacity="1" stroke-linecap="square" font-family="MS Shell Dlg 2" stroke="#000000" stroke-linejoin="bevel" font-weight="400" fill="none"/>
  <g font-style="normal" stroke-width="1" font-size="32.5" transform="matrix(0.999067,0,0,0.999067,487.34,0)" stroke-opacity="1" stroke-linecap="square" font-family="MS Shell Dlg 2" stroke="#000000" stroke-linejoin="bevel" font-weight="400" fill="none"/>
  <g font-style="normal" stroke-width="1" font-size="32.5" transform="matrix(11.8,0,0,11.8,487.34,0)" stroke-opacity="1" stroke-linecap="square" font-family="MS Shell Dlg 2" stroke="#000000" stroke-linejoin="bevel" font-weight="400" fill="none"/>
  <g font-style="normal" stroke-width="1" font-size="32.5" transform="matrix(11.8,0,0,11.8,487.34,0)" stroke-opacity="1" stroke-linecap="square" font-family="MS Shell Dlg 2" stroke="#000000" stroke-linejoin="bevel" font-weight="400" fill="none"/>
  <g font-style="normal" stroke-width="1" font-size="32.5" transform="matrix(1,0,0,1,0,0)" stroke-opacity="1" stroke-linecap="square" font-family="MS Shell Dlg 2" stroke="#000000" stroke-linejoin="bevel" font-weight="400" fill="none"/>
 </g>
</svg>
